<svg id="Layer_1" data-name="Layer 1" xmlns="http://www.w3.org/2000/svg" xmlns:xlink="http://www.w3.org/1999/xlink" viewBox="0 0 638.6 426.9"><defs><style>.cls-1{fill:none;}.cls-2{clip-path:url(#clip-path);}.cls-3{fill:#f9fafa;}.cls-4{fill:url(#Nepojmenovaný_přechod);}.cls-5{fill:url(#Nepojmenovaný_přechod_2);}.cls-6{fill:url(#Nepojmenovaný_přechod_3);}.cls-7{fill:url(#Nepojmenovaný_přechod_4);}.cls-8{fill:url(#Nepojmenovaný_přechod_5);}.cls-9{fill:url(#Nepojmenovaný_přechod_6);}.cls-10{fill:url(#Nepojmenovaný_přechod_7);}.cls-11{fill:url(#Nepojmenovaný_přechod_8);}.cls-12{fill:url(#Nepojmenovaný_přechod_9);}.cls-13{fill:url(#Nepojmenovaný_přechod_10);}.cls-14{fill:url(#Nepojmenovaný_přechod_11);}.cls-15{fill:url(#Nepojmenovaný_přechod_12);}.cls-16{fill:url(#Nepojmenovaný_přechod_13);}</style><clipPath id="clip-path"><circle class="cls-1" cx="320.7" cy="212.1" r="212.1"/></clipPath><linearGradient id="Nepojmenovaný_přechod" x1="2.11" y1="516.34" x2="555.46" y2="-37.01" gradientTransform="matrix(1, 0, 0, -1, 0, 413.2)" gradientUnits="userSpaceOnUse"><stop offset="0" stop-color="#e61630"/><stop offset="1" stop-color="#cf142b"/></linearGradient><linearGradient id="Nepojmenovaný_přechod_2" x1="46.11" y1="560.34" x2="599.46" y2="6.99" xlink:href="#Nepojmenovaný_přechod"/><linearGradient id="Nepojmenovaný_přechod_3" x1="-40.99" y1="473.24" x2="512.36" y2="-80.11" xlink:href="#Nepojmenovaný_přechod"/><linearGradient id="Nepojmenovaný_přechod_4" x1="-164.69" y1="349.54" x2="388.66" y2="-203.81" xlink:href="#Nepojmenovaný_přechod"/><linearGradient id="Nepojmenovaný_přechod_5" x1="167.84" y1="682.06" x2="721.19" y2="128.71" xlink:href="#Nepojmenovaný_přechod"/><linearGradient id="Nepojmenovaný_přechod_6" x1="-42.16" y1="381.81" x2="410.72" y2="-71.07" gradientTransform="matrix(1, 0, 0, -1, 0, 413.2)" gradientUnits="userSpaceOnUse"><stop offset="0" stop-color="#0031ab"/><stop offset="1" stop-color="#00247d"/></linearGradient><linearGradient id="Nepojmenovaný_přechod_7" x1="77.82" y1="501.78" x2="530.69" y2="48.91" xlink:href="#Nepojmenovaný_přechod_6"/><linearGradient id="Nepojmenovaný_přechod_8" x1="230.94" y1="654.91" x2="683.81" y2="202.04" xlink:href="#Nepojmenovaný_přechod_6"/><linearGradient id="Nepojmenovaný_přechod_9" x1="196.14" y1="620.11" x2="649.02" y2="167.23" xlink:href="#Nepojmenovaný_přechod_6"/><linearGradient id="Nepojmenovaný_přechod_10" x1="-136.61" y1="287.36" x2="316.26" y2="-165.51" xlink:href="#Nepojmenovaný_přechod_6"/><linearGradient id="Nepojmenovaný_přechod_11" x1="-102.61" y1="321.36" x2="350.27" y2="-131.52" xlink:href="#Nepojmenovaný_přechod_6"/><linearGradient id="Nepojmenovaný_přechod_12" x1="136.17" y1="560.13" x2="589.04" y2="107.26" xlink:href="#Nepojmenovaný_přechod_6"/><linearGradient id="Nepojmenovaný_přechod_13" x1="15.72" y1="439.68" x2="468.59" y2="-13.19" xlink:href="#Nepojmenovaný_přechod_6"/></defs><g class="cls-2"><rect class="cls-3" y="1.2" width="638.6" height="425.6"/><polygon class="cls-4" points="351.7 1.2 286.9 1.2 286.9 170.9 0 170.9 0 257.2 286.9 257.2 286.9 426.7 351.7 426.7 351.7 257.2 638.6 257.2 638.6 170.9 351.7 170.9 351.7 1.2"/><polygon class="cls-5" points="429.2 286.8 638.6 426.7 638.6 394.5 477.3 286.8 429.2 286.8"/><polygon class="cls-6" points="213.2 142.5 1.8 1.2 0 1.2 0 32.6 164.4 142.5 213.2 142.5"/><polygon class="cls-7" points="0.4 426.9 46.2 426.9 256.6 286.8 210 286.8 0.4 426.9"/><polygon class="cls-8" points="590.8 1.2 378.5 142.5 426.7 142.5 638.6 1.3 638.6 1.2 590.8 1.2"/><polygon class="cls-9" points="0 50.3 0 142.7 138.3 142.7 0 50.3"/><polygon class="cls-10" points="264.7 130.9 264.7 1.2 70.5 1.2 264.7 130.9"/><polygon class="cls-11" points="498.4 142.7 638.6 142.7 638.6 49 498.4 142.7"/><polygon class="cls-12" points="372 1.2 372 130.9 566.2 1.2 372 1.2"/><polygon class="cls-13" points="0 285.4 0 377.8 138.3 285.4 0 285.4"/><polygon class="cls-14" points="264.7 426.9 264.7 297.2 70.5 426.9 264.7 426.9"/><polygon class="cls-15" points="638.6 379.1 638.6 285.4 498.4 285.4 638.6 379.1"/><polygon class="cls-16" points="372 426.9 566.2 426.9 372 297.2 372 426.9"/></g></svg>