<?xml version="1.0" encoding="utf-8"?>
<!-- Generator: Adobe Illustrator 26.1.0, SVG Export Plug-In . SVG Version: 6.00 Build 0)  -->
<svg version="1.1" id="Layer_1" xmlns="http://www.w3.org/2000/svg" xmlns:xlink="http://www.w3.org/1999/xlink" x="0px" y="0px"
	 viewBox="0 0 500 500" style="enable-background:new 0 0 500 500;" xml:space="preserve">
<style type="text/css">
	.st0{clip-path:url(#SVGID_00000065061203218856632340000006277293186573587330_);}
	.st1{fill:#F9FAFA;}
	.st2{fill:url(#SVGID_00000155144057949250870010000003236976904093791155_);}
	.st3{fill:url(#SVGID_00000085942594310809952990000015872578970448520345_);}
	.st4{fill:url(#SVGID_00000064322798447686663470000010407347150261791873_);}
	.st5{fill:url(#SVGID_00000086663609331798905020000014458683110557389455_);}
	.st6{fill:url(#SVGID_00000002376310935918996970000011000301548812557738_);}
	.st7{fill:url(#SVGID_00000159454661716847883630000000971159115408017328_);}
	.st8{fill:url(#SVGID_00000158026064907052023960000013773500478909275789_);}
	.st9{fill:url(#SVGID_00000122684455290456821980000006722230833130105777_);}
	.st10{fill:url(#SVGID_00000091724965037879106060000000866490565059805854_);}
	.st11{fill:url(#SVGID_00000183209639182159959700000008290521932534054310_);}
	.st12{fill:url(#SVGID_00000116931168463961479920000006672046149971503782_);}
	.st13{fill:url(#SVGID_00000146477098418116860520000017680073721060970911_);}
	.st14{fill:url(#SVGID_00000026154259596305742240000015186876867479387012_);}
	.st15{clip-path:url(#SVGID_00000131337886569066816880000016275831985513326502_);}
	.st16{fill:#003399;}
	.st17{fill:#FFCC00;}
</style>
<g>
	<defs>
		<circle id="SVGID_00000175319398468063657710000000574236164916923778_" cx="246.7" cy="256.5" r="212.1"/>
	</defs>
	<clipPath id="SVGID_00000107556938983135515340000017564453666442679989_">
		<use xlink:href="#SVGID_00000175319398468063657710000000574236164916923778_"  style="overflow:visible;"/>
	</clipPath>
	<g style="clip-path:url(#SVGID_00000107556938983135515340000017564453666442679989_);">
		<rect x="-51.4" y="-30.5" class="st16" width="596.1" height="578.1"/>
		<g>
			<polygon class="st17" points="180.4,119.6 185.4,134.9 201.5,135 188.5,144.4 193.4,159.8 180.4,150.3 167.3,159.8 172.2,144.4 
				159.2,135 175.3,134.9 			"/>
			<polygon class="st17" points="246.7,102 251.7,117.3 267.9,117.3 254.8,126.8 259.8,142.1 246.7,132.7 233.6,142.1 238.5,126.8 
				225.5,117.3 241.7,117.3 			"/>
			<polygon class="st17" points="313.1,119.6 318.2,134.9 334.3,135 321.3,144.4 326.2,159.8 313.1,150.3 300,159.8 305,144.4 
				292,135 308.1,134.9 			"/>
			<polygon class="st17" points="361.6,168.2 366.6,183.5 382.7,183.5 369.7,193 374.6,208.3 361.6,198.9 348.5,208.3 353.4,193 
				340.4,183.5 356.5,183.5 			"/>
			<polygon class="st17" points="379.3,234.7 384.3,250 400.4,250 387.4,259.5 392.3,274.8 379.3,265.4 366.2,274.8 371.1,259.5 
				358.1,250 374.2,250 			"/>
			<polygon class="st17" points="361.6,300.7 366.6,316 382.7,316 369.7,325.5 374.6,340.8 361.6,331.4 348.5,340.8 353.4,325.5 
				340.4,316 356.5,316 			"/>
			<polygon class="st17" points="312.9,349.1 317.9,364.4 334,364.5 321,374 326,389.3 312.9,379.9 299.8,389.3 304.7,374 
				291.7,364.5 307.8,364.4 			"/>
			<polygon class="st17" points="246.7,367.1 251.7,382.4 267.9,382.5 254.8,392 259.8,407.3 246.7,397.9 233.6,407.3 238.5,392 
				225.5,382.5 241.7,382.4 			"/>
			<polygon class="st17" points="180.2,349.4 185.3,364.7 201.4,364.7 188.4,374.2 193.3,389.5 180.2,380.1 167.2,389.5 
				172.1,374.2 159.1,364.7 175.2,364.7 			"/>
			<polygon class="st17" points="131.7,300.6 136.7,315.9 152.8,315.9 139.8,325.4 144.8,340.7 131.7,331.3 118.6,340.7 
				123.5,325.4 110.5,315.9 126.6,315.9 			"/>
			<polygon class="st17" points="114,234.5 119.1,249.8 135.2,249.8 122.2,259.3 127.1,274.7 114,265.2 101,274.7 105.9,259.3 
				92.9,249.8 109,249.8 			"/>
			<polygon class="st17" points="131.8,168.3 136.8,183.6 153,183.6 139.9,193.1 144.9,208.5 131.8,199 118.7,208.5 123.7,193.1 
				110.6,183.6 126.8,183.6 			"/>
		</g>
	</g>
</g>
</svg>
