<?xml version="1.0" encoding="utf-8"?>
<!-- Generator: Adobe Illustrator 26.1.0, SVG Export Plug-In . SVG Version: 6.00 Build 0)  -->
<svg version="1.1" id="Layer_1" xmlns="http://www.w3.org/2000/svg" xmlns:xlink="http://www.w3.org/1999/xlink" x="0px" y="0px"
	 viewBox="0 0 500 500" style="enable-background:new 0 0 500 500;" xml:space="preserve">
<style type="text/css">
	.st0{clip-path:url(#SVGID_00000115492165692371042500000006147407464840825248_);}
	.st1{fill:#F9FAFA;}
	.st2{fill:url(#SVGID_00000181782325701458065120000012486070031658185870_);}
	.st3{fill:url(#SVGID_00000154399776783490550550000006426339943019246722_);}
	.st4{fill:url(#SVGID_00000147900912462448139020000012506729666848285087_);}
	.st5{fill:url(#SVGID_00000090989552090197170690000018248287478372292752_);}
	.st6{fill:url(#SVGID_00000117648471900000552840000006700753008879775626_);}
	.st7{fill:url(#SVGID_00000013195393407870527950000006549203446388850866_);}
	.st8{fill:url(#SVGID_00000023971151651178141000000015466646294666338440_);}
	.st9{fill:url(#SVGID_00000124843103251910533620000007418947215575672962_);}
	.st10{fill:url(#SVGID_00000031184406228722787350000012223615947926034331_);}
	.st11{fill:url(#SVGID_00000057146489674908311790000004975391491398439840_);}
	.st12{fill:url(#SVGID_00000096771650413900510650000002283235518225968025_);}
	.st13{fill:url(#SVGID_00000004513139152274061410000015049120880359661723_);}
	.st14{fill:url(#SVGID_00000084493621392678693120000015664075624765142664_);}
	.st15{clip-path:url(#SVGID_00000163044856385706612000000011344095661898325409_);}
	.st16{fill:#003399;}
	.st17{fill:#FFCC00;}
</style>
<path d="M247.8,45.1c-116.9,0-212,95.1-212,212s95.1,212,212,212c116.9,0,212-95.1,212-212S364.7,45.1,247.8,45.1z M259.5,175.9
	c25.6-0.6,50.1-3.2,72.3-7.6c6.6,23.7,10.5,49.8,11.4,77.1h-83.6V175.9z M259.5,152.3V70.8c19.9,5,38.6,22.6,53.8,50.8
	c4.1,7.5,7.7,15.6,11,24.2C304.4,149.5,282.4,151.7,259.5,152.3z M236,70.8v81.6c-22.8-0.6-44.8-2.8-64.8-6.5
	c3.3-8.6,7-16.7,11-24.3C197.4,93.4,216.1,75.8,236,70.8z M236,175.9v69.5h-83.6c0.9-27.2,4.8-53.3,11.4-77
	C185.9,172.7,210.4,175.3,236,175.9z M128.8,245.4H59.6c2.3-37,15.3-71.2,36-99.5c12.6,6.8,27.9,12.6,45.1,17.2
	C133.8,188.6,129.7,216.5,128.8,245.4z M128.8,268.9c0.9,28.2,4.8,55.4,11.4,80.2c-17.5,4.8-32.9,10.8-45.6,17.9
	c-20.1-28-32.7-61.6-35-98.1H128.8z M152.3,268.9H236v67.2c-25.9,0.6-50.6,3.2-72.8,7.6C156.9,320.7,153.2,295.4,152.3,268.9z
	 M236,359.7v83.8c-19.9-5-38.6-22.6-53.8-50.8c-4.4-8.2-8.3-17-11.8-26.3C190.5,362.6,212.8,360.3,236,359.7z M259.5,443.5v-83.8
	c23.2,0.6,45.5,2.9,65.6,6.6c-3.5,9.3-7.4,18.2-11.8,26.4C298.2,420.9,279.4,438.5,259.5,443.5z M259.5,336.2v-67.2h83.6
	c-0.8,26.4-4.5,51.8-10.8,74.8C310.1,339.4,285.4,336.8,259.5,336.2z M366.7,268.9h69.2c-2.2,36.4-14.8,70-34.9,97.9
	c-12.7-7-28.2-13-45.7-17.8C361.9,324.2,365.9,297.1,366.7,268.9z M366.7,245.4c-0.9-29-5-57-12-82.4c17.2-4.7,32.4-10.5,44.9-17.4
	c20.8,28.3,34,62.6,36.3,99.8H366.7z M384.2,127.2c-10.4,5.2-22.8,9.6-36.7,13.3c-3.9-10.7-8.4-20.8-13.4-30.1
	c-6.1-11.3-12.8-21.2-19.9-29.7C340.9,90.8,364.8,106.9,384.2,127.2z M181.4,80.7c-7.2,8.5-13.9,18.4-19.9,29.7
	c-5.1,9.4-9.6,19.6-13.5,30.3c-13.9-3.7-26.4-8.1-36.8-13.3C130.6,107,154.5,90.9,181.4,80.7z M109.8,385.6
	c10.5-5.4,23.1-10.1,37.4-13.9c4.1,11.5,8.9,22.3,14.2,32.2c6.1,11.3,12.8,21.3,20,29.8C154,423.3,129.5,406.7,109.8,385.6z
	 M314,433.7c7.2-8.5,13.9-18.4,20-29.8c5.4-10,10.1-20.8,14.3-32.3c14.3,3.8,27,8.5,37.5,13.8C366.1,406.6,341.6,423.3,314,433.7z"
	/>
</svg>
