<svg width="14" height="11" viewBox="0 0 14 11" fill="none" xmlns="http://www.w3.org/2000/svg">
<path d="M5.00409 10.1343C4.87248 10.1351 4.74202 10.1067 4.62018 10.0507C4.49835 9.9947 4.38753 9.91217 4.29409 9.80786L0.294091 5.30579C0.105788 5.09385 -1.9841e-09 4.8064 0 4.50667C1.9841e-09 4.20695 0.105788 3.91949 0.294091 3.70756C0.482395 3.49562 0.73779 3.37655 1.00409 3.37655C1.27039 3.37655 1.52579 3.49562 1.71409 3.70756L5.00409 7.42176L11.2941 0.331005C11.4824 0.119066 11.7378 0 12.0041 0C12.2704 0 12.5258 0.119066 12.7141 0.331005C12.9024 0.542944 13.0082 0.830395 13.0082 1.13012C13.0082 1.42985 12.9024 1.7173 12.7141 1.92924L5.71409 9.80786C5.62065 9.91217 5.50984 9.9947 5.388 10.0507C5.26616 10.1067 5.1357 10.1351 5.00409 10.1343Z" fill="#03A786"/>
</svg>
