<svg id="Ebene_1" data-name="Ebene 1" xmlns="http://www.w3.org/2000/svg" viewBox="0 0 250 250"><defs><style>.cls-1{fill:#1d1d1b;}</style></defs><path class="cls-1" d="M84.68,156.82a12.16,12.16,0,0,0,.58,2.94,21.26,21.26,0,0,0,7.66,9,17.13,17.13,0,0,0,7,2.91,2,2,0,0,0,1.23-.1,10.75,10.75,0,0,0,4.17-4A27.16,27.16,0,0,0,109,153.14a1.62,1.62,0,0,0-.15-.73c-1.47-2.42-2.94-4.86-5.27-6.58-2.1-1.55-4.06-3.4-6.87-3.59-1.72-.12-3.49-.35-5,.81a53.27,53.27,0,0,0-4.18,3.46,5.69,5.69,0,0,0-1.35,2.21,32.85,32.85,0,0,0-1.51,8.1m93.06-.35a8.12,8.12,0,0,0,2.18,6.68c.63.72,1.27,1.44,1.94,2.13a16.76,16.76,0,0,0,13.8,5.43,2.54,2.54,0,0,0,1.13-.31c2.21-1.45,4.17-3.11,5-5.77A34.94,34.94,0,0,0,203,153.82a1.4,1.4,0,0,0-.11-.58c-.71-1.47-1.4-3-2.16-4.4a12.9,12.9,0,0,0-9.85-7,4.21,4.21,0,0,0-3.52.75c-1.87,1.47-3.85,2.79-5.72,4.25a10.69,10.69,0,0,0-3.91,9.59m-6.16-3.85a17.31,17.31,0,0,1,6.48-10.24c2.68-1.94,5.48-3.71,8.26-5.51a5.71,5.71,0,0,1,2-.79c4.93-.94,9.17.58,12.81,3.87a18.32,18.32,0,0,1,4,5.74c.12.24.32.6.5.61,1.42.06,1.87,1.15,2.3,2.19a31.1,31.1,0,0,1,.9,3h8.19c0-.28,0-.59,0-.89-.08-5-.21-10.07-.23-15.11,0-5.35,0-10.7.08-16a3.51,3.51,0,0,0-.62-2c-1.6-2.5-3.22-5-4.73-7.54-.85-1.43-1.43-3-2.26-4.46a32.75,32.75,0,0,0-3.43-5.33c-2.46-2.8-5.2-5.36-7.82-8a9.58,9.58,0,0,0-7.18-2.7c-3.28,0-6.57,0-9.85,0a60.82,60.82,0,0,0-7.88.43,46,46,0,0,1-7.85.58h-.87c.13,2,.28,4,.37,5.92.23,5.35.52,10.69-.23,16a78.25,78.25,0,0,0-1.1,12.32c.19,9.17.32,18.35.47,27.49l7.63.49M134,71.86c.93.08,1.85.21,2.78.22,3.34.07,6.69,0,10,.16a46.51,46.51,0,0,1,5.36.8c.94.16,1.87.42,2.82.61,3.93.77,6.72,2.84,7.73,6.89.34,1.34.63,2.69,1,4.09a47,47,0,0,0,9.09-.58,25.88,25.88,0,0,1,5-.59c5.19-.13,10.37-.16,15.55-.21a11.55,11.55,0,0,1,8.27,2.92c3.45,3.16,6.93,6.29,9.62,10.15a31.21,31.21,0,0,1,2.64,4.54,71.28,71.28,0,0,0,6.45,11.34,12.19,12.19,0,0,1,2.17,7.25q0,6.36,0,12.73,0,9.44,0,18.86a16.7,16.7,0,0,1-.14,2.45c-.31,1.95-1.6,3.73-3.82,3.71-2.57,0-5.15,0-7.72-.07-1.65-.07-1.74-.11-1.83,1.5a24.77,24.77,0,0,1-1.27,7.16c-2.06,5.63-5.92,9.72-11.76,11a18.44,18.44,0,0,1-17.64-4.92c-1-1-2-2-2.92-3.09-2.31-2.63-3.24-5.84-3.85-9.19,0-.22-.05-.45-.08-.67a1.22,1.22,0,0,0-.08-.17l-5-.43c-2.08-.18-4.16-.36-6.24-.52a3,3,0,0,0-.74,0,43.85,43.85,0,0,1-4.49.76,52.07,52.07,0,0,1-5.86,0,11.5,11.5,0,0,0-4.57.78,41,41,0,0,1-12.21,2.27,23.43,23.43,0,0,1-7.42-1.24,36.52,36.52,0,0,1-4.31-1.48,13.92,13.92,0,0,0-5.81-.8c-.13.7-.22,1.4-.41,2.07a36.71,36.71,0,0,1-5.11,11.4,16.6,16.6,0,0,1-7.87,6,10.74,10.74,0,0,1-7.65-.46c-7.6-2.9-12.33-8.44-14.73-16.1a18.4,18.4,0,0,1-.38-2s0-.07-.08-.06c-2.35.25-4.46-.92-6.72-1.17a41.12,41.12,0,0,1-6.77-1c-2.11-.61-4.24-.42-6.35-.75a4,4,0,0,1-3.68-3,31.29,31.29,0,0,1-.91-4.88c-.33-3.54-.51-7.1-.75-10.64-.09-1.39.16-1.77,1.41-2.3a2.07,2.07,0,0,0,.55-.48,3.23,3.23,0,0,1,2.69-.73c.19,0,.42.49.49.78a29.93,29.93,0,0,1,.33,12.11c-.78,4.13.29,4.08,3.4,4.58,2.24.37,4.54.42,6.81.64,2.45.24,4.9.47,7.34.78a16.23,16.23,0,0,1,2.43.64c.21-1.11.41-2.1.58-3.09a14,14,0,0,1,5.89-9.65c1.41-1,2.76-2.06,4.2-3a12.76,12.76,0,0,1,6.68-1.91,13.54,13.54,0,0,1,9.8,3.47,23.51,23.51,0,0,1,5.59,6.53c.74,1.36,1.68,2.6,2.51,3.91a6.42,6.42,0,0,1,.37.85c.23.54.48,1.07.7,1.54a17.05,17.05,0,0,1,10.06.9c4.29,1.68,8.83,2.78,13.53,1.55,2.32-.6,4.63-1.3,7-1.83a22,22,0,0,1,4.19-.57c2.18-.08,4.36,0,6.54.05a1.1,1.1,0,0,0,1.29-.91,5.21,5.21,0,0,0,.27-1.49c-.12-3.87-.28-7.74-.43-11.61,0-1-.07-2-.06-3,0-5,0-10,.15-15,.08-2.44.58-4.88.85-7.32a49,49,0,0,0,.52-5.9c-.05-5.35-.15-10.7-.44-16a78.75,78.75,0,0,0-1.15-7.88,2.85,2.85,0,0,0-1.31-1.88,9.79,9.79,0,0,0-4.74-1.88c-1.57-.2-3.09-.7-4.64-1a21.28,21.28,0,0,0-3.29-.29c-3,0-6,.1-8.92,0-5.62-.25-11.2.45-16.79.49-4.79,0-9.58-.07-14.37.06-3.38.1-6.76.5-10.14.75-.65,0-1.3.07-2,.07H60.13c0,.41,0,.77,0,1.11.32,3.47.69,6.93,1,10.4a18,18,0,0,1,0,3.88,3,3,0,0,1-3.7,2.75,1.91,1.91,0,0,1-1.16-1.09,11.15,11.15,0,0,1-.72-2.85q-.54-5-.95-10c-.15-1.8-.26-3.62-.23-5.42a4.2,4.2,0,0,1,2.14-3.45c2-1.45,4.13-1.42,6.31-1.44,9.83-.07,19.66,0,29.48-.14,3,0,6.09-.48,9.13-.72.82-.07,1.64-.1,2.46-.11,5.55,0,11.1.05,16.66,0,3.53,0,7.07-.26,10.6-.41a4,4,0,0,0,.5-.09Z"/><path class="cls-1" d="M52.89,111.39a25.54,25.54,0,0,1-11.73-1.86c-.81-.34-1.58-.77-2.36-1.14a5,5,0,0,0-1.31-.57c-1.1-.17-1.4-1-1.59-1.84a.94.94,0,0,1,.27-.82c.95-.61,1.88-1.42,3.16-.9a1.39,1.39,0,0,0,.5.09c6.43.41,12.85,1.35,19.31.79,2.42-.21,4.83-.57,7.23-.94s5-1,7.52-1.21c3-.25,5.94-.16,8.91-.19,4.33,0,8.66-.1,13-.08a29.92,29.92,0,0,1,3.88.44.92.92,0,0,1,.6.39,4.28,4.28,0,0,1-.43,4.22,2.32,2.32,0,0,1-1.34.62c-3.27.26-6.55.47-9.82.66-1.39.09-2.77.15-4.16.14-1.89,0-3.79-.06-5.68-.13a47.52,47.52,0,0,0-10.37.9,71.18,71.18,0,0,1-15.58,1.43"/><path class="cls-1" d="M72.93,126.88c-4.72-.23-9.44-.58-14.16-.67-5-.09-10,.08-15,.11-3.86,0-7.76.41-11.56-.64a17.45,17.45,0,0,1-2.32-1,4.48,4.48,0,0,0-.85-.35,1.67,1.67,0,0,1-1.52-1.65.84.84,0,0,1,.23-.67,4.92,4.92,0,0,1,1.75-.89,51.33,51.33,0,0,1,5.52-.67c3.56-.22,7.13-.42,10.69-.48,4.84-.08,9.69-.12,14.52,0,3.51.09,7,.52,10.51.73,2,.12,3.92,0,5.86.16a33.28,33.28,0,0,1,4,.87A1,1,0,0,1,81,122c.45.39.64,2.74.39,3.29-.6,1.34-1.69,1.57-3,1.54-1.81,0-3.62,0-5.43,0v.11"/><path class="cls-1" d="M196.81,119c4-.45,8-.88,12-1.36,1.49-.18,1.55-.16,1.7,1.35a14.11,14.11,0,0,1,.33,1.62,3.73,3.73,0,0,1-2.68,3.1c-1.31.22-2.61.51-3.93.65a96,96,0,0,1-13.56.7,15.64,15.64,0,0,1-6.8-2.17c-1.31-.71-1.66-2.2-1.9-3.56-.44-2.59-.71-5.2-1.14-7.78a53.94,53.94,0,0,1-.91-12.16,9.79,9.79,0,0,1,1.28-4.77c.08-.12.13-.31.24-.35,1.38-.45,2.34-1.84,4-1.78.62,0,.86.21,1,.78a10.88,10.88,0,0,1-.12,4.78,23.53,23.53,0,0,0,0,9.53c.44,3,1,5.92,1.49,8.87a1.39,1.39,0,0,0,.67.82,14.89,14.89,0,0,0,8.42,1.45,2.72,2.72,0,0,0,0,.28"/></svg>