<svg id="Ebene_1" data-name="Ebene 1" xmlns="http://www.w3.org/2000/svg" viewBox="0 0 250 250"><defs><style>.cls-1{fill:#1d1d1b;}</style></defs><path class="cls-1" d="M145,33.18l8.27,3.11a5.7,5.7,0,0,1,1.18.6c5.07,3.58,10.65,6.42,15.35,10.59,4.54,4,9.36,7.72,14,11.57,2.34,1.92,5,3.57,7,5.82,4,4.53,8.34,8.8,10.87,14.49A67.82,67.82,0,0,1,206,93.14c2,9.45,4.09,18.87,5.65,28.39a43.2,43.2,0,0,1-.07,16.69,180.51,180.51,0,0,1-5.34,19.46,70.34,70.34,0,0,1-6.76,14.9,18.13,18.13,0,0,1-5.07,5.18,43.74,43.74,0,0,0-6.2,4.87,41,41,0,0,0-4.84,6.19,14.74,14.74,0,0,1-7.52,6.18,40.23,40.23,0,0,0-5.12,2,24,24,0,0,0-5.65,3.29c-7.14,6.46-15.55,10.56-24.55,13.56a60.05,60.05,0,0,1-16.33,2.89,54.91,54.91,0,0,1-9.07-.24c-3.59-.45-7.1-1.41-10.67-2.05a26.75,26.75,0,0,1-7.79-3c-3.41-1.83-6.84-3.61-10.23-5.48-2.52-1.38-5-2.89-7.46-4.3a17.16,17.16,0,0,0-3.29-1.65A6.47,6.47,0,0,1,71,194.52a2.54,2.54,0,0,1,.69-2.13,18.24,18.24,0,0,1,4-2.18c1.3-.52,2.43.25,3.58.85,6.55,3.4,13.13,6.74,19.69,10.11,1.56.8,3.08,1.68,4.62,2.52,3.06,1.66,6.5,1.84,9.82,2.5,1.91.39,3.79,1.06,5.72,1.27a46.71,46.71,0,0,0,7.75.25A44.42,44.42,0,0,0,140.57,205c4.89-1.92,9.93-3.57,14.14-6.9,2-1.59,4-3.21,6-4.75a39.92,39.92,0,0,1,12-6.07,6.26,6.26,0,0,0,3.74-3.13,29.93,29.93,0,0,1,10.48-11,19.17,19.17,0,0,0,7.92-9.83c2-5,4.48-9.88,5.78-15.19,1-3.95,2-7.88,2.9-11.85a20.17,20.17,0,0,0,.25-3.82,80.84,80.84,0,0,0-2-19.23c-1.65-7.43-3-14.92-4.79-22.32a27.6,27.6,0,0,0-7.35-13.5c-1-1-1.8-2.35-2.85-3.39-1.88-1.88-3.8-3.74-5.85-5.44-3.13-2.6-6.4-5-9.58-7.58-4.1-3.29-8-6.86-12.3-9.9a132.13,132.13,0,0,0-12.77-7.73,15.82,15.82,0,0,0-8.76-1.92c-5.54.34-11.11.26-16.61.86-5.17.56-10.27,1.79-15.42,2.65-3,.51-6.11.72-9.11,1.34A33.25,33.25,0,0,0,83,52.16c-2.84,2.11-5.54,4.41-8.36,6.56-4,3-8.15,5.9-12.08,9-2.51,2-4.74,4.38-7.08,6.6a5.29,5.29,0,0,0-.54.74,127.6,127.6,0,0,1,20.41-1.27c.28,0,.56,0,.83,0,2.75,0,2.75,0,3.25,2.72a8.23,8.23,0,0,1,.41,2.4,4.19,4.19,0,0,1-4.31,3.91c-3.15.09-6.29.1-9.44.14a91.68,91.68,0,0,0-14.41,1.3,54.21,54.21,0,0,1-5.72.38c-1.8.12-2.89-.33-3.57-2.65a92.52,92.52,0,0,1-2.11-9.92c-.77-4.47-1.41-9-2-13.47-.24-1.73-.27-3.49-.41-5.24,0-.51-.16-1-.24-1.52v-1.2c.08-.42.18-.85.24-1.28A3.74,3.74,0,0,1,40,46.08c1.15-.53,2.13-1.38,3.49-1.51.82-.07,1.19.21,1.32,1,.22,1.34.53,2.66.71,4,.65,5.11,1.23,10.22,1.92,15.33.24,1.82.7,3.61,1.1,5.59.3-.29.42-.39.52-.5A71.46,71.46,0,0,1,60.93,59.36c3.13-2.21,6.35-4.32,9.26-6.81a87.39,87.39,0,0,1,10-7.53,49.23,49.23,0,0,1,18-7.14c3.49-.62,7-1,10.52-1.5,5.15-.8,10.29-1.72,15.44-2.5,2.2-.34,4.43-.47,6.65-.7Z"/><path class="cls-1" d="M81.71,100.16a47.42,47.42,0,0,0,4.42,2.68c5.74,2.68,11.39,5.6,17.44,7.57a31.14,31.14,0,0,1,3.9,1.51,75.17,75.17,0,0,1,14.71,9.6,1.55,1.55,0,0,0,1.8.28c4.81-1.88,8.71-5.12,12.67-8.27a.93.93,0,0,0,.2-.26c-3.41-2.13-6.81-4.14-10.09-6.32-2.59-1.72-5-3.66-7.55-5.47a34.86,34.86,0,0,0-4.35-2.93c-5-2.53-10-4.93-14.61-8.15a7.23,7.23,0,0,1-1.53-1.91,8,8,0,0,1-.56-1.4,87.54,87.54,0,0,0-16.45,13.07M105,83.25c4.51,2.19,8.77,4.29,13.06,6.32a25.94,25.94,0,0,1,7.49,4.88,12.19,12.19,0,0,0,2.15,1.7c4.89,3,9.81,6,14.71,9a20,20,0,0,1,1.84,1.12,1.16,1.16,0,0,0,1.49.07,45.21,45.21,0,0,1,5.11-2.57c4.89-1.94,9.84-3.74,14.76-5.61.45-.18.87-.44,1.54-.78-1.21-.67-2.14-1.2-3.08-1.71-1.37-.73-2.76-1.44-4.13-2.18-5.73-3.06-11.35-6.37-17.23-9.12a74,74,0,0,1-17-10.32c-2.62-2.2-2.71-2.26-5.66-.46-4.32,2.65-8.55,5.45-12.81,8.19-.67.42-1.32.88-2.22,1.49m9.91,85.19c0-1.25,0-2.29,0-3.32.13-6.66.24-13.32.42-20,0-1.91.21-3.83.43-5.73.27-2.21.64-4.41,1-6.61.47-2.79-.58-4.53-3-6.06-4.2-2.61-8.19-5.59-12.86-7.33-4.52-1.68-9-3.47-13.33-5.57a42.17,42.17,0,0,1-9.45-5.57c-1-.86-2.2-1.53-3.42-2.37,0,.39-.09.65-.11.91-.29,3.34-.39,6.71-.91,10-1.32,8.43-.82,17-1.85,25.42a3.14,3.14,0,0,0,2.09,3.62c3.17,1.5,6.29,3.12,9.36,4.8q10.86,6,21.66,12c3.33,1.86,6.63,3.79,10,5.73m57.22-65c-.52.28-1.08.57-1.63.88a28.91,28.91,0,0,1-2.94,1.6c-4.67,1.83-9.33,3.72-14.08,5.34a20.88,20.88,0,0,0-7.48,4.35,123.79,123.79,0,0,1-12.42,9.56,30.47,30.47,0,0,1-8,4c-.63.21-.74.51-.76,1.11-.06,2.19-.15,4.38-.32,6.57-.13,1.58-.54,3.15-.59,4.74-.26,7.58-.38,15.17-.66,22.75a33.8,33.8,0,0,0,1.35,9.07,1.08,1.08,0,0,0,1.6.88,33.48,33.48,0,0,0,8.57-4.16c4.55-3.25,9.17-6.37,14.63-8a11.5,11.5,0,0,0,3.72-2.08,55.83,55.83,0,0,1,11.62-7.52,54.58,54.58,0,0,0,5.6-3.2c1.53-.92,3-1.94,4.51-2.9a2.49,2.49,0,0,0,1.49-2.55c-.36-3.13-.69-6.26-.89-9.4-.39-5.89-.59-11.79-1-17.67-.33-4.49-.71-9-2.34-13.38m4.42,51a51.54,51.54,0,0,1-11.63,7.13,20.34,20.34,0,0,0-4.69,3.29,30.25,30.25,0,0,1-11.25,6.42c-3.68,1.22-6.63,3.63-9.68,5.86a45.47,45.47,0,0,1-13.82,6.46,11.65,11.65,0,0,1-2.85.22.91.91,0,0,1-.64-.27c-2-2.27-4.8-3-7.29-4.41-3.36-1.84-6.76-3.59-10.13-5.4q-3.86-2.07-7.66-4.2c-4-2.26-8-4.63-12.1-6.81-3.2-1.71-6.51-3.2-9.77-4.81a23.71,23.71,0,0,1-2.63-1.41,5.74,5.74,0,0,0-4-1.15,2,2,0,0,1-1.4-.67A11.13,11.13,0,0,1,64,147.29c-.09-3.54.13-7.09.23-10.63,0-1.64.22-3.27.16-4.9a103.59,103.59,0,0,1,1-15.15c.38-3.37.58-6.76.92-10.13a43.11,43.11,0,0,1,.79-5.07,4,4,0,0,1,2.23-2.56C72.62,97,76,95.43,78.48,92.46a35.77,35.77,0,0,1,4-3.72A103.43,103.43,0,0,1,96.9,78.44c6.84-4.19,13.67-8.41,20.52-12.57a46.39,46.39,0,0,1,4.72-2.52,3.39,3.39,0,0,1,3.74.37c4.79,3.3,9.67,6.5,14.68,9.46,3.22,1.9,6.79,3.19,10.09,4.95,4.72,2.52,9.34,5.22,14,7.83,2.5,1.4,5.09,2.67,7.52,4.19a48.5,48.5,0,0,1,5.34,4,3.77,3.77,0,0,1,1.2,2c.8,3.74,1.62,7.47,2.15,11.25q1.15,8.24,1.89,16.53c.35,3.89.38,7.81.59,11.72.18,3.26.51,6.52.58,9.79a19,19,0,0,1-.61,5,13,13,0,0,1-1.67,3.64c-.87,1.37-3.83,1.58-5.14.39"/></svg>