<svg width="40" height="40" viewBox="0 0 40 40" fill="none" xmlns="http://www.w3.org/2000/svg">
    <g clip-path="url(#clip0_3868_4175)">
        <path d="M33.7765 22.1287C33.7765 22.6567 33.8085 23.2167 33.7765 23.7607C33.7125 24.5927 33.4565 25.3607 33.0885 26.1127C33.0245 26.2407 32.9765 26.3687 32.9285 26.4967C32.7045 27.1847 32.2885 27.7607 31.8405 28.3047C31.5845 28.6247 31.2805 28.9127 31.0085 29.2167C30.7045 29.5367 30.4005 29.8567 30.1285 30.1927C29.3445 31.1847 28.3845 32.0167 27.3765 32.7847C27.1205 32.9767 26.8645 33.1527 26.6085 33.3287C25.6005 34.0007 24.4965 34.4007 23.3125 34.6247C22.7365 34.7367 22.1765 34.8167 21.6005 34.8967C20.7365 35.0247 19.8565 35.1687 18.9765 35.2647C18.3205 35.3287 17.6485 35.3607 16.9925 35.2967C16.5285 35.2487 16.0805 35.0567 15.6325 34.8807C14.9605 34.6247 14.3045 34.3047 13.6165 34.0647C13.1045 33.8887 12.5445 33.8247 12.0165 33.6807C11.5205 33.5527 11.0565 33.3287 10.6085 33.0727C10.1765 32.8167 9.74449 32.5927 9.31249 32.3207C9.10449 32.1927 8.92849 32.0327 8.76849 31.8567C8.44849 31.5047 8.14449 31.1367 7.84049 30.7527C6.81649 29.4567 6.04849 28.0487 5.55249 26.4647C5.18449 25.3127 4.83249 24.1607 4.64049 22.9767C4.56049 22.4647 4.51249 21.9527 4.44849 21.4567C4.30449 20.4327 4.28849 19.4247 4.32049 18.4007C4.33649 18.0167 4.38449 17.6327 4.41649 17.2487C4.49649 16.4967 4.64049 15.7447 4.84849 15.0247C5.10449 14.1127 5.53649 13.2967 6.11249 12.5447C6.25649 12.3527 6.36849 12.1447 6.51249 11.9527C6.86449 11.4887 7.21649 11.0407 7.56849 10.5927C7.71249 10.4007 7.87249 10.2247 8.00049 10.0327C8.28849 9.63266 8.64049 9.31266 9.05649 9.04066C9.68049 8.62466 10.2725 8.17666 10.9125 7.77666C11.8405 7.21666 12.7685 6.64066 13.7445 6.16066C14.4165 5.82466 15.1845 5.68066 15.9525 5.68066C16.4165 5.68066 16.8805 5.68066 17.3445 5.76066C17.6485 5.82466 17.9525 5.79266 18.2725 5.77666C18.6885 5.76066 19.1045 5.85666 19.5205 5.92066C20.1445 6.03266 20.7685 6.12866 21.4085 6.17666C22.1445 6.24066 22.8485 6.38466 23.5525 6.60866C24.3525 6.84866 25.1525 7.08866 25.9205 7.40866C26.4645 7.63266 26.9445 7.96866 27.4565 8.25666C27.6485 8.36866 27.8085 8.48066 27.9845 8.60866C28.4165 8.89666 28.7845 9.23266 29.1045 9.64866C29.6005 10.3047 30.1125 10.9447 30.6565 11.5687C31.2325 12.2407 31.6645 13.0087 32.0485 13.7927C32.5445 14.8167 32.9925 15.8727 33.2325 17.0087C33.3925 17.7607 33.4885 18.5447 33.6165 19.2967C33.7445 20.2247 33.7925 21.1687 33.7765 22.1287ZM27.5685 30.3847C27.8565 30.0807 28.1445 29.7927 28.4165 29.4887C28.8165 29.0567 29.2005 28.5927 29.6005 28.1607C29.8725 27.8567 30.1765 27.5527 30.4485 27.2327C30.6245 27.0407 30.8005 26.8327 30.9125 26.6087C31.1525 26.1127 31.3765 25.6167 31.5685 25.1047C31.8085 24.4967 31.9845 23.8567 31.9685 23.1847C31.9525 22.4167 31.9685 21.6487 31.9685 20.8807C31.9685 20.5767 31.9365 20.2887 31.8885 19.9847C31.8245 19.5207 31.7445 19.0727 31.6965 18.6087C31.6325 18.0007 31.5045 17.4087 31.2965 16.8487C31.0565 16.1927 30.7525 15.5527 30.4645 14.9127C30.3045 14.5607 30.1285 14.2247 29.9205 13.9047C29.6165 13.4407 29.2645 13.0087 28.9285 12.5607C28.5765 12.1127 28.2405 11.6647 27.8725 11.2487C27.6325 10.9607 27.3605 10.6887 27.0725 10.4487C26.8005 10.2247 26.4965 10.0647 26.2085 9.87266C25.6485 9.52066 25.0885 9.16866 24.4485 8.97666C23.8565 8.80066 23.2805 8.59266 22.6885 8.38466C21.7285 8.06466 20.7205 7.95266 19.7125 7.85666C19.3125 7.82466 18.9125 7.74466 18.5125 7.66466C18.1285 7.58466 17.7445 7.52066 17.3445 7.52066C16.5605 7.55266 15.7765 7.55266 14.9925 7.56866C14.8805 7.56866 14.7525 7.61666 14.6405 7.64866C14.5605 7.66466 14.4965 7.69666 14.4325 7.72866C14.2405 7.79266 14.0165 7.82466 13.8405 7.92066C13.4245 8.14466 13.0405 8.38466 12.6405 8.62466C12.3365 8.80066 12.0485 8.99266 11.7605 9.18466C11.3125 9.47266 10.8805 9.79266 10.4485 10.0807C10.0645 10.3367 9.68049 10.5927 9.39249 10.9607C8.89649 11.6007 8.40049 12.2247 7.90449 12.8487C7.80849 12.9767 7.72849 13.1367 7.64849 13.2647C7.44049 13.5847 7.18449 13.8727 7.02449 14.1927C6.68849 14.8487 6.49649 15.5527 6.35249 16.2727C6.24049 16.8487 6.11249 17.4407 6.09649 18.0167C6.06449 18.8967 6.11249 19.7607 6.12849 20.6407C6.12849 20.7367 6.16049 20.8327 6.16049 20.9287C6.20849 21.3127 6.24049 21.6807 6.28849 22.0647C6.32049 22.3687 6.32049 22.6887 6.40049 22.9767C6.62449 23.8407 6.84849 24.7047 7.13649 25.5367C7.40849 26.3847 7.77649 27.1847 8.28849 27.9047C8.54449 28.2567 8.78449 28.6247 9.05649 28.9607C9.28049 29.2487 9.55249 29.5207 9.77649 29.8247C9.93649 30.0647 10.1125 30.2727 10.3685 30.4167C10.6885 30.5927 11.0245 30.7687 11.3445 30.9447C11.3765 30.8807 11.3925 30.8327 11.4085 30.7847C11.6325 30.3367 11.8245 29.8567 12.1125 29.4407C12.5925 28.7367 13.2325 28.1927 13.9365 27.7127C14.7205 27.1687 15.5845 26.8007 16.5445 26.7367C17.4245 26.6727 18.3045 26.5927 19.1845 26.5927C20.0485 26.5927 20.9125 26.6727 21.7765 26.7367C22.1925 26.7687 22.6085 26.7847 23.0085 26.8807C23.9045 27.1207 24.7845 27.4087 25.6645 27.6807C25.8565 27.7447 26.0485 27.8567 26.2085 28.0007C26.4485 28.2087 26.6565 28.4647 26.8485 28.7047C27.0085 28.8967 27.1365 29.1207 27.2325 29.3447C27.3285 29.7127 27.4245 30.0487 27.5685 30.3847ZM25.9205 31.7607C25.8725 31.5687 25.8565 31.4247 25.8085 31.3127C25.7445 31.1687 25.6485 31.0247 25.5685 30.8807C25.4405 30.6407 25.2805 30.4327 25.0405 30.2887C24.8485 30.1767 24.6725 30.0167 24.4805 29.8727C24.3205 29.7607 24.1765 29.6327 24.0005 29.5687C23.5205 29.3927 23.0405 29.2327 22.5445 29.0887C22.4165 29.0407 22.2725 29.0087 22.1285 28.9927C21.7765 28.9607 21.4245 28.9447 21.0725 28.9287C20.9285 28.9127 20.7685 28.8967 20.6245 28.8967C20.3845 28.8967 20.1445 28.8967 19.9045 28.8967C19.7285 28.8967 19.5365 28.8807 19.3605 28.8807C19.0405 28.8807 18.7205 28.8647 18.4005 28.8647C18.1765 28.8647 17.9525 28.8967 17.7285 28.8967C17.5525 28.8967 17.3605 28.8807 17.1845 28.8807C16.9285 28.8807 16.6725 28.8807 16.4325 28.8807C16.0805 28.8647 15.7285 28.8967 15.4085 29.0727C14.9925 29.2967 14.6085 29.5847 14.2245 29.8407C14.0325 29.9687 13.8405 30.1127 13.6645 30.2727C13.5525 30.3687 13.4405 30.4967 13.3605 30.6407C13.1685 31.0247 13.0085 31.4087 12.8165 31.8247C13.3285 31.9367 13.8245 32.0167 14.3205 32.1607C14.7365 32.2727 15.1365 32.4487 15.5365 32.6087C15.8085 32.7207 16.0965 32.8167 16.3525 32.9607C17.0245 33.2967 17.7285 33.4887 18.4805 33.4727C19.1205 33.4567 19.7445 33.4087 20.3845 33.2967C20.7845 33.2327 21.1845 33.1847 21.6005 33.1207C21.9525 33.0727 22.3045 33.0087 22.6405 32.9607C22.7845 32.9447 22.9285 32.9127 23.0725 32.8967C23.3765 32.8487 23.6805 32.8167 23.9685 32.7207C24.3845 32.5927 24.7845 32.4327 25.1685 32.2567C25.4405 32.0807 25.6965 31.8887 25.9205 31.7607Z" fill="#1F1F1F"></path>
        <path d="M17.6478 9.71244C18.5118 9.69644 19.3918 9.64844 20.2558 9.64844C20.9278 9.64844 21.5678 9.79244 22.1278 10.2404C22.4478 10.4964 22.8638 10.6564 23.1998 10.9124C23.8718 11.3924 24.5118 11.8884 25.1518 12.4164C25.3918 12.6084 25.5678 12.8644 25.7598 13.1044C26.0318 13.4724 26.0958 13.8884 26.1278 14.3364C26.1438 14.5444 26.2398 14.7364 26.2878 14.9284C26.6718 16.2404 26.7838 17.5844 26.7998 18.9444C26.7998 19.5044 26.7518 20.0644 26.6078 20.6244C26.5918 20.6884 26.5758 20.7524 26.5438 20.8004C26.2558 21.3444 25.9838 21.8884 25.6958 22.4324C25.5038 22.8164 25.1518 23.0404 24.8158 23.2644C24.7198 23.3284 24.6238 23.4244 24.5438 23.4884C24.1598 23.8244 23.8078 24.1924 23.3758 24.4644C22.5118 25.0244 21.5358 25.2644 20.5118 25.2644C19.8878 25.2644 19.2478 25.2804 18.6238 25.2964C17.6158 25.3124 16.6878 25.0084 15.7918 24.5924C15.4558 24.4324 15.1678 24.1764 14.8478 23.9844C14.6398 23.8564 14.4318 23.7124 14.2078 23.6324C13.4718 23.3764 12.9758 22.8484 12.5598 22.2244C12.1758 21.6644 11.9038 21.0724 11.6798 20.4484C11.4078 19.6644 11.1038 18.8804 10.8318 18.0964C10.5758 17.3764 10.5598 16.6244 10.6398 15.8884C10.7678 14.8164 11.1838 13.8404 11.8878 12.9924C12.0318 12.8164 12.1278 12.6084 12.2398 12.4164C12.3998 12.1284 12.5918 11.8724 12.8478 11.6644C13.0238 11.5044 13.1838 11.3124 13.3438 11.1204C13.5038 10.9444 13.6158 10.7204 13.8078 10.5924C14.3198 10.2404 14.8638 9.95244 15.5038 9.88844C15.5358 9.88844 15.5678 9.88844 15.5838 9.87244C16.1758 9.63244 16.7998 9.69644 17.4238 9.68044C17.4878 9.69644 17.5678 9.69644 17.6478 9.71244ZM19.4878 23.6484C19.4878 23.6644 19.4878 23.6644 19.4878 23.6484C19.6638 23.6484 19.8398 23.6324 20.0318 23.6484C20.6078 23.6644 21.1358 23.4884 21.6318 23.2164C21.7438 23.1524 21.8558 23.1044 21.9678 23.0724C22.5278 22.9604 22.9918 22.6724 23.4078 22.3044C23.5838 22.1444 23.7918 22.0164 23.9198 21.8244C24.3678 21.1844 24.7358 20.5124 24.8798 19.7284C24.9278 19.4404 24.9598 19.1524 25.0398 18.8644C25.2798 17.8564 25.1998 16.8644 24.8958 15.8724C24.8158 15.5844 24.7358 15.2804 24.6718 14.9764C24.5118 14.2084 24.1278 13.6164 23.4558 13.2164C23.2958 13.1204 23.1678 13.0084 23.0238 12.8964C22.8158 12.7204 22.6398 12.5284 22.4158 12.3844C21.9518 12.0804 21.5358 11.6964 20.9918 11.5044C20.7678 11.4244 20.5598 11.3124 20.3358 11.2004C20.2878 11.1684 20.2238 11.1364 20.1598 11.1364C19.8398 11.1364 19.5358 11.1204 19.2158 11.1524C18.6398 11.2164 18.0638 11.3124 17.4878 11.3764C17.3598 11.3924 17.2318 11.3924 17.1038 11.3764C16.8478 11.3444 16.6078 11.3604 16.3838 11.4724C16.0318 11.6484 15.6958 11.8244 15.3438 11.9844C14.9438 12.1764 14.6078 12.4324 14.3198 12.7524C14.1278 12.9764 13.9038 13.1684 13.6478 13.2964C13.3758 13.4404 13.2318 13.6644 13.1198 13.9364C12.9918 14.2564 12.9118 14.6244 12.7038 14.8964C12.4798 15.2004 12.4478 15.5204 12.3838 15.8564C12.3678 15.9684 12.3518 16.0804 12.3358 16.2084C12.2078 16.9444 12.2398 17.6644 12.5438 18.3684C12.6878 18.6884 12.7838 19.0244 12.9118 19.3604C13.1358 19.9524 13.4718 20.4644 13.9518 20.8804C14.1598 21.0724 14.3358 21.2804 14.5118 21.5044C14.7198 21.7604 14.8958 22.0484 15.2318 22.1444C15.2798 22.1604 15.3278 22.2244 15.3758 22.2564C15.7278 22.4804 16.0798 22.7364 16.4478 22.9284C16.8158 23.1204 17.2158 23.2324 17.5998 23.4084C17.9678 23.5684 18.3358 23.6804 18.7518 23.6484C18.9918 23.6644 19.2478 23.6644 19.4878 23.6484Z" fill="#1F1F1F"></path>
        <path d="M22.6089 18.9934C22.5609 19.2174 22.5289 19.4734 22.4329 19.6974C22.2089 20.1614 21.9689 20.6254 21.7129 21.0734C21.3289 21.7134 20.6729 21.9694 20.0009 22.1614C19.3929 22.3374 18.8009 22.2094 18.2409 21.9534C17.6969 21.6974 17.1689 21.3774 16.6409 21.0734C16.1449 20.7854 15.7929 20.3374 15.5689 19.7934C15.4889 19.5854 15.3769 19.3934 15.2969 19.2014C15.2329 19.0414 15.2009 18.8814 15.1689 18.7214C15.1529 18.5774 15.2009 18.4654 15.3609 18.4334C15.3929 18.4334 15.4249 18.4174 15.4569 18.4014C15.6329 18.2734 15.8249 18.2894 16.0169 18.3694C16.1769 18.4334 16.3209 18.5134 16.4649 18.5774C17.2969 18.9774 18.2089 19.0414 19.1049 19.1694C19.4089 19.2174 19.7289 19.0894 20.0329 19.0094C20.3049 18.9454 20.5769 18.8174 20.8489 18.7374C21.1529 18.6414 21.3609 18.4334 21.6169 18.2574C21.8089 18.1134 22.0329 17.9854 22.2889 18.0014C22.3369 18.0014 22.4169 18.0494 22.4329 18.0974C22.4969 18.4014 22.5449 18.6734 22.6089 18.9934Z" fill="#1F1F1F"></path>
        <path d="M14.9613 16.7369C14.6093 16.2089 14.5613 15.6169 14.5933 15.0089C14.5933 14.8649 14.6093 14.7369 14.6253 14.5929C14.6893 14.0329 15.3613 13.6969 15.8733 13.9049C15.9693 13.9369 16.0813 14.0489 16.1133 14.1449C16.2253 14.5289 16.3533 14.9129 16.4173 15.3129C16.4653 15.6329 16.4173 15.9529 16.4173 16.2729C16.4173 16.4009 16.3373 16.4489 16.2253 16.4649C15.9533 16.5129 15.6813 16.5769 15.4093 16.6249C15.2653 16.6729 15.1053 16.7049 14.9613 16.7369Z" fill="#1F1F1F"></path>
        <path d="M22.2083 16.0489C21.6963 16.1609 21.2323 16.2729 20.7203 16.3689C20.6883 16.1929 20.6243 15.9849 20.6083 15.7929C20.5923 15.3769 20.6083 14.9609 20.6403 14.5609C20.6723 14.0969 20.8643 13.9849 21.2643 13.8249C21.5203 13.7129 21.7923 13.8409 21.9043 14.0969C22.0003 14.2889 22.0803 14.4969 22.0963 14.6889C22.1603 15.1369 22.1763 15.6009 22.2083 16.0489Z" fill="#1F1F1F"></path>
    </g>
    <defs>
        <clipPath id="clip0_3868_4175">
            <rect width="40" height="40" fill="white"></rect>
        </clipPath>
    </defs>
</svg>