<svg width="40" height="40" viewBox="0 0 40 40" fill="none" xmlns="http://www.w3.org/2000/svg">
    <path d="M16.1092 10.7599H16.17C16.17 11.1999 16.17 11.6399 16.17 12.0799C16.17 12.1967 16.1988 12.2399 16.3172 12.2399C16.6836 12.2543 17.05 12.2783 17.4148 12.3055C18.5172 12.3871 19.6196 12.4847 20.722 12.5535C21.5755 12.6151 22.4329 12.5931 23.282 12.4879C23.3796 12.4751 23.3892 12.4271 23.386 12.3519C23.3748 12.1007 23.3748 11.8479 23.3524 11.5983C23.3076 11.0975 23.2532 10.5983 23.1924 10.0991C23.1204 9.44792 22.7572 8.96472 22.2692 8.56472C21.6628 8.06552 21.0212 7.60472 20.4612 7.05432C20.1563 6.77705 19.8358 6.51742 19.5012 6.27672C19.4426 6.22659 19.372 6.19256 19.2962 6.17797C19.2205 6.16339 19.1423 6.16874 19.0692 6.19352C18.7066 6.31016 18.3504 6.44582 18.002 6.59992C17.6266 6.78322 17.3182 7.07985 17.1204 7.44792C16.9514 7.7377 16.7661 8.01762 16.5652 8.28632C16.273 8.66769 16.1129 9.13387 16.1092 9.61432C16.1092 9.99672 16.1092 10.3791 16.1092 10.7599ZM25.6804 13.7599C25.7172 14.0351 25.7524 14.2783 25.7828 14.5231C25.8788 15.3007 25.9428 16.0767 25.7252 16.8479C25.6564 17.0895 25.626 17.3407 25.578 17.5887C25.5682 17.6309 25.5717 17.6751 25.5881 17.7152C25.6044 17.7553 25.6327 17.7894 25.6692 17.8127C25.77 17.8878 25.845 17.9923 25.8836 18.1119C25.9549 18.3684 25.9825 18.6351 25.9652 18.9007C25.9332 19.1327 25.7812 19.3519 25.6756 19.5743C25.6359 19.6566 25.5882 19.7349 25.5332 19.8079C25.4676 19.8959 25.3972 20.0351 25.3172 20.0447C25.1225 20.0587 24.9268 20.048 24.7348 20.0127C24.5748 19.9935 24.4308 19.9263 24.2772 19.9215C24.1524 19.9255 24.0285 19.8984 23.9167 19.8425C23.805 19.7866 23.7089 19.7038 23.6372 19.6015C23.4946 19.4137 23.3738 19.2103 23.2772 18.9951C23.2087 18.867 23.1752 18.7231 23.1799 18.5779C23.1847 18.4327 23.2276 18.2913 23.3044 18.1679C23.3308 18.123 23.3467 18.0727 23.3508 18.0207C23.3621 17.9323 23.3916 17.8472 23.4376 17.7709C23.4836 17.6946 23.5451 17.6287 23.618 17.5775C23.6468 17.5545 23.6707 17.5259 23.6883 17.4935C23.7059 17.461 23.7168 17.4254 23.7204 17.3887C23.6948 16.8031 23.6724 16.2159 23.618 15.6287C23.5636 15.0415 23.4676 14.4543 23.3956 13.8687C23.3844 13.7823 23.3524 13.7551 23.2692 13.7471C22.5444 13.6799 21.8212 13.5967 21.0948 13.5391C19.7108 13.4271 18.3284 13.2879 16.9348 13.3391C16.7044 13.3487 16.474 13.3551 16.2436 13.3695C16.1636 13.3695 16.0948 13.3903 16.0836 13.5023C16.0644 13.8319 16.0468 14.1615 16.0052 14.4895C15.9124 15.2159 15.8068 15.9407 15.706 16.6671C15.6564 17.0191 15.6372 17.3391 15.8452 17.6847C16.1092 18.1231 16.2436 18.6271 15.89 19.1135C15.872 19.1395 15.8595 19.1689 15.8532 19.1999C15.8209 19.3146 15.7513 19.4152 15.6554 19.4859C15.5595 19.5566 15.4427 19.5934 15.3236 19.5903C14.8099 19.6043 14.2978 19.5263 13.8116 19.3599C13.2484 19.1999 13.066 18.6751 13.3156 18.1503C13.3395 18.1094 13.3573 18.0652 13.3684 18.0191C13.4005 17.8629 13.4665 17.7157 13.5619 17.5879C13.6573 17.4601 13.7797 17.355 13.9204 17.2799C13.9541 17.2553 13.9822 17.2239 14.0031 17.1878C14.0241 17.1518 14.0373 17.1118 14.042 17.0703C14.0644 16.7087 14.0692 16.3471 14.0804 15.9871C14.0809 15.9031 14.0862 15.8193 14.0964 15.7359C14.1668 15.2815 14.2452 14.8271 14.3124 14.3711C14.3396 14.1871 14.346 14.0015 14.3636 13.7999C14.239 13.8185 14.1135 13.8308 13.9876 13.8367C12.8564 13.8191 11.7252 13.8015 10.594 13.7743C10.4564 13.7743 10.3924 13.8015 10.3604 13.9343C10.1626 14.6626 10.033 15.4076 9.97323 16.1599C9.94603 16.6927 9.90443 17.2271 9.82763 17.7599C9.72363 18.4895 9.53643 19.1999 9.47723 19.9455C9.42283 20.6175 9.30443 21.2847 9.28843 21.9631C9.27723 22.4207 9.34603 22.8703 9.37323 23.3247C9.39664 23.8952 9.38168 24.4666 9.32843 25.0351C9.25003 26.0639 9.14283 27.0911 9.04843 28.1183C9.02763 28.3375 9.03243 28.5615 8.99083 28.7759C8.84203 29.5471 8.85483 30.3295 8.83083 31.1087C8.81003 31.6847 8.78763 32.2591 8.77323 32.8351C8.77323 33.0207 8.78763 33.2047 8.79563 33.4127C8.95563 33.3791 9.07403 33.3551 9.19563 33.3263C9.37593 33.2714 9.55914 33.2265 9.74443 33.1919C10.3364 33.1135 10.9284 33.0319 11.5236 32.9855C13.2228 32.8351 14.922 32.7839 16.6116 33.1087C16.8232 33.1481 17.0369 33.1753 17.2516 33.1903C17.794 33.2319 18.3396 33.2527 18.882 33.3039C20.0201 33.416 21.1672 33.3982 22.3012 33.2511C22.9652 33.1631 23.6324 33.1007 24.2996 33.0495C24.6964 33.0191 25.0996 33.0495 25.4948 33.0271C26.1652 33.0031 26.834 32.9519 27.5044 32.9407C28.1316 32.9311 28.762 32.9407 29.3876 32.9807C29.9068 32.991 30.4226 33.0651 30.9236 33.2015C30.9555 33.2048 30.9877 33.2048 31.0196 33.2015C30.983 33.0356 30.9547 32.8679 30.9348 32.6991C30.8756 31.7391 30.7908 30.7647 30.7748 29.7967C30.7508 27.8687 30.7748 25.9391 30.7604 24.0095C30.7524 23.0991 30.722 22.1871 30.6612 21.2783C30.594 20.2767 30.242 19.3343 29.9684 18.3775C29.6446 17.3062 29.4144 16.2087 29.2804 15.0975C29.2324 14.6447 29.1412 14.1967 29.0724 13.7471C29.058 13.6447 29.0068 13.6079 28.9044 13.6079C28.5844 13.6079 28.2548 13.5983 27.93 13.5967C27.8303 13.5927 27.7306 13.6035 27.634 13.6287C27.2084 13.7441 26.767 13.79 26.3268 13.7647C26.1188 13.7647 25.9092 13.7647 25.6772 13.7647M32.6164 34.6031C32.5956 34.5759 32.5748 34.5183 32.5348 34.4991C32.4948 34.4799 32.4404 34.4991 32.3924 34.5103C32.3444 34.5215 32.3188 34.5471 32.2996 34.5375C32.0452 34.3951 31.7572 34.4543 31.4868 34.4015C31.203 34.3577 30.9164 34.3347 30.6292 34.3327C30.3364 34.3199 30.042 34.3327 29.7492 34.3151C29.3316 34.2863 28.9156 34.2143 28.498 34.2047C27.9403 34.1635 27.3799 34.1753 26.8244 34.2399C25.1124 34.5215 23.3908 34.5199 21.6676 34.5119C20.4356 34.5055 19.2042 34.4959 17.9732 34.4831C16.7946 34.4735 15.6154 34.4623 14.4356 34.4495C14.154 34.4495 13.8708 34.4111 13.5876 34.4159C12.8724 34.4271 12.1476 34.4399 11.4388 34.4767C11.1812 34.4911 10.9284 34.5919 10.6708 34.6239C10.0628 34.6975 9.45323 34.7535 8.84523 34.8207C8.76523 34.8287 8.68523 34.8607 8.61163 34.8655C8.51491 34.8757 8.41769 34.8805 8.32043 34.8799C8.24093 34.8684 8.16233 34.8513 8.08523 34.8287C7.79403 34.7583 7.50123 34.6927 7.21163 34.6143C7.18554 34.6093 7.16077 34.5989 7.13885 34.5839C7.11694 34.5689 7.09835 34.5495 7.08424 34.527C7.07013 34.5045 7.06081 34.4793 7.05685 34.4531C7.05289 34.4268 7.05438 34.4 7.06123 34.3743C7.07083 34.3135 7.06923 34.2495 7.08363 34.1887C7.21995 33.4994 7.27366 32.7963 7.24363 32.0943C7.2433 30.8728 7.31114 29.6523 7.44683 28.4383C7.65369 26.562 7.76317 24.6763 7.77483 22.7887C7.81301 20.8437 8.00562 18.9048 8.35083 16.9903C8.46923 16.2735 8.54763 15.5503 8.65483 14.8271C8.73135 14.2363 8.89753 13.6606 9.14763 13.1199C9.20456 12.9916 9.27255 12.8685 9.35083 12.7519C9.46443 12.5919 9.65323 12.6463 9.81323 12.6223C9.8962 12.6135 9.97986 12.6135 10.0628 12.6223C11.2244 12.6959 12.3588 12.4799 13.4996 12.3167C13.7332 12.2831 13.9684 12.2639 14.2036 12.2479C14.3076 12.2479 14.3492 12.2127 14.338 12.0879C14.2699 11.4731 14.2801 10.8521 14.3684 10.2399C14.3828 10.1468 14.3893 10.0526 14.3876 9.95832C14.3876 9.04472 14.7204 8.23672 15.1764 7.47512C15.3956 7.10712 15.6676 6.77112 15.9188 6.42232C16.2881 5.94294 16.7882 5.58064 17.3588 5.37912C18.0419 5.11248 18.787 5.04696 19.506 5.19032C19.5586 5.20225 19.6122 5.20921 19.666 5.21112C20.6004 5.19992 21.4068 5.56952 22.1812 6.04472C22.9939 6.5601 23.6956 7.23242 24.2452 8.02232C24.6081 8.52649 24.8486 9.10826 24.9476 9.72152C24.9997 10.0151 25.0735 10.3045 25.1684 10.5871C25.3308 11.1018 25.4381 11.6322 25.4884 12.1695C25.4964 12.2479 25.5108 12.3295 25.5236 12.4255L25.8196 12.3999C26.6196 12.3183 27.4196 12.1951 28.21 12.1695C28.77 12.1503 29.33 12.2623 29.8964 12.3183C30.106 12.3391 30.3124 12.3711 30.522 12.3871C30.5848 12.3872 30.6459 12.4073 30.6965 12.4444C30.7471 12.4815 30.7846 12.5337 30.8036 12.5935C30.9475 12.9273 31.0127 13.2897 30.994 13.6527C30.969 13.7722 30.9342 13.8893 30.89 14.0031C30.8717 14.0719 30.8652 14.1433 30.8708 14.2143C31.0282 15.5713 31.3126 16.9105 31.7204 18.2143C31.9636 19.0047 32.2388 19.7951 32.2964 20.6239C32.3636 21.5839 32.3972 22.5439 32.4036 23.5135C32.4196 25.5263 32.4036 27.5407 32.4132 29.5535C32.4132 30.4063 32.4612 31.2607 32.5108 32.1135C32.5425 32.6239 32.6565 33.1259 32.8484 33.5999C32.8918 33.7388 32.9228 33.8812 32.9412 34.0255C32.9412 34.0495 32.9492 34.0911 32.9412 34.1007C32.7812 34.2207 32.7812 34.4207 32.6852 34.5807C32.6852 34.5807 32.666 34.5807 32.6244 34.5999" fill="#1F1F1F"/>
</svg>