<svg width="40" height="40" viewBox="0 0 40 40" fill="none" xmlns="http://www.w3.org/2000/svg">
    <path d="M30.9043 14.216C30.6867 14.7904 30.4163 15.3488 30.1779 15.9168C29.9859 16.368 29.7891 16.8176 29.6259 17.28C29.4096 17.8523 29.1226 18.3951 28.7715 18.896C28.2778 19.6686 27.7309 20.4059 27.1347 21.1024C26.8079 21.5026 26.5171 21.931 26.2659 22.3824C25.5955 23.4896 25.1043 24.688 24.5555 25.856C24.3716 26.2407 24.1451 26.6035 23.8803 26.9376C23.1907 27.8208 22.4963 28.6976 21.7603 29.544C21.3368 29.9943 20.8829 30.415 20.4019 30.8032C20.2028 30.9499 19.9938 31.0825 19.7763 31.2C19.6899 31.2544 19.6339 31.2304 19.5667 31.1536C18.7587 30.24 17.9427 29.3296 17.1347 28.4144C17.0141 28.275 16.9019 28.1287 16.7987 27.976C16.3187 27.2848 15.8387 26.6016 15.3683 25.896C15.0851 25.4672 14.8403 25.0128 14.5779 24.5696C14.4899 24.4224 14.4035 24.2752 14.3091 24.1312C13.9891 23.6416 13.6611 23.1568 13.3491 22.6656C12.8051 21.8208 12.2707 20.9696 11.7235 20.1248C11.2977 19.4681 10.9543 18.7614 10.7011 18.0208C10.4419 17.264 10.1731 16.5056 9.85945 15.768C9.59407 15.1406 9.43198 14.4744 9.37945 13.7952C9.33305 13.224 9.28665 12.6512 9.28825 12.0784C9.29624 11.7163 9.34727 11.3565 9.44025 11.0064C9.66177 10.1264 10.0657 9.30277 10.6259 8.58883C10.8789 8.2484 11.1088 7.89133 11.3139 7.52003C11.6625 6.90633 12.1571 6.38809 12.7539 6.01123C13.2356 5.72667 13.7997 5.61386 14.3539 5.69123C14.4699 5.72201 14.5717 5.79213 14.6419 5.88963C15.1944 6.52194 15.6091 7.26249 15.8595 8.06403C16.3096 9.51328 16.9487 10.8969 17.7603 12.1792C17.8499 12.3248 17.9715 12.4496 18.0803 12.5872C18.1524 12.6675 18.2113 12.7588 18.2547 12.8576C18.2711 12.916 18.3002 12.9701 18.34 13.0159C18.3797 13.0617 18.4291 13.0982 18.4847 13.1226C18.5402 13.1471 18.6004 13.159 18.6611 13.1574C18.7217 13.1559 18.7813 13.1409 18.8355 13.1136C18.8179 13.1392 18.8003 13.1632 18.7843 13.1888C18.8787 13.248 18.9843 13.3648 19.0691 13.3488C19.1539 13.3328 19.2643 13.2128 19.3091 13.1136C19.6627 12.3296 19.9939 11.5376 20.3443 10.7536C20.4723 10.472 20.6275 10.2 20.7763 9.92963C20.8787 9.74563 21.0035 9.57603 21.0963 9.39203C21.3906 8.81785 21.812 8.31828 22.3283 7.93123C22.6919 7.65306 23.024 7.33598 23.3187 6.98563C23.517 6.74061 23.7666 6.54201 24.05 6.4038C24.3333 6.26559 24.6435 6.19112 24.9587 6.18563C25.5667 6.17603 26.1827 6.07683 26.7811 6.25763C27.1021 6.33554 27.4119 6.45438 27.7027 6.61123C28.3299 7.00003 28.9411 7.41123 29.5267 7.86083C29.9363 8.18083 30.1267 8.66083 30.3027 9.14083C30.6419 10.048 30.7331 11.0112 30.8755 11.96C30.9551 12.4432 31.0085 12.9303 31.0355 13.4192C31.0451 13.6918 31.0011 13.9636 30.9059 14.2192M32.5603 11.6288C32.5177 10.6851 32.3007 9.75748 31.9203 8.89283C31.6419 8.21763 31.3667 7.53923 31.1059 6.85603C31.0111 6.53447 30.8208 6.24933 30.5603 6.03843C29.7603 5.47683 28.9315 4.92963 28.1123 4.38403C27.7631 4.16897 27.3663 4.04314 26.9571 4.01763C26.4826 3.96622 26.0051 3.94911 25.5283 3.96643C24.9123 3.99523 24.2979 4.07043 23.6883 4.14883C23.4732 4.17282 23.2643 4.23629 23.0723 4.33603C22.5211 4.61892 22.0282 5.00324 21.6195 5.46883C21.4595 5.65763 21.2995 5.84483 21.1395 6.03683C20.7187 6.55683 20.2867 7.07043 20.0099 7.68803C19.8499 8.05283 19.7203 8.43843 19.5411 8.79363C19.3619 9.14883 19.1203 9.51203 18.9011 9.86723L18.8451 9.84643C18.7683 9.66083 18.6851 9.47203 18.6099 9.28483C18.2899 8.54243 17.9699 7.80323 17.6611 7.05603C17.4976 6.63399 17.2792 6.23535 17.0115 5.87043C16.6499 5.39043 16.2931 4.91043 15.9267 4.44163C15.8336 4.31167 15.7195 4.19811 15.5891 4.10563C15.1091 3.79683 14.6291 3.48003 14.1203 3.22083C13.8375 3.09297 13.535 3.01399 13.2259 2.98723C12.7088 2.94123 12.1883 3.02139 11.7091 3.22083C11.2349 3.36621 10.8342 3.68732 10.5891 4.11843C10.4755 4.33161 10.3461 4.53593 10.2019 4.72963C9.84665 5.22563 9.45785 5.70083 9.12985 6.21443C8.82743 6.67668 8.57126 7.16758 8.36505 7.68003C8.21075 8.15224 8.09936 8.6374 8.03225 9.12963C7.95865 9.52163 7.91545 9.92963 7.87225 10.3184C7.80345 10.8992 7.67225 11.4832 7.69625 12.0592C7.74585 13.2416 7.85625 14.4208 7.99225 15.5968C8.08135 16.1365 8.201 16.6707 8.35065 17.1968C8.5026 17.8554 8.74263 18.4904 9.06425 19.0848C9.40665 19.7248 9.72825 20.3888 10.0771 21.0304C10.2908 21.4646 10.5459 21.8771 10.8387 22.2624C11.2782 22.8084 11.672 23.3895 12.0163 24C12.2179 24.3408 12.3779 24.704 12.5955 25.032C13.0755 25.7536 13.5683 26.4624 14.0675 27.168C14.4963 27.7776 14.9507 28.368 15.3779 28.9792C15.9267 29.8069 16.5588 30.5762 17.2643 31.2752C17.4998 31.4893 17.7117 31.728 17.8963 31.9872C18.1411 32.3488 18.3411 32.7424 18.5507 33.128C18.616 33.2353 18.6524 33.3577 18.6563 33.4832C18.647 33.581 18.6723 33.679 18.7279 33.76C18.7834 33.841 18.8657 33.8999 18.9603 33.9264C19.1475 33.9616 19.3491 33.9552 19.4835 34.1328C19.5004 34.1496 19.5213 34.1619 19.5442 34.1686C19.5671 34.1753 19.5913 34.1762 19.6147 34.1712C19.8051 34.056 19.9955 33.9344 20.1731 33.8016C20.3613 33.6342 20.5607 33.4797 20.7699 33.3392C21.0634 33.1876 21.3697 33.0618 21.6851 32.9632C22.1895 32.7866 22.6118 32.4315 22.8723 31.9648C22.9347 31.8624 23.0003 31.7616 23.0723 31.664C23.4754 31.0754 23.934 30.5268 24.4419 30.0256C24.6875 29.7924 24.9026 29.529 25.0819 29.2416C25.4046 28.7407 25.6344 28.1857 25.7603 27.6032C25.787 27.4976 25.8273 27.396 25.8803 27.3008C26.1235 26.84 26.3507 26.368 26.6211 25.9232C27.0259 25.2592 27.4467 24.608 27.7235 23.8752C27.829 23.6303 27.965 23.3997 28.1283 23.1888C28.3763 22.8496 28.6547 22.5344 28.9027 22.1936C29.2652 21.736 29.5971 21.255 29.8963 20.7536C30.1151 20.3308 30.3733 19.9296 30.6675 19.5552C31.1422 19.0107 31.5112 18.3823 31.7555 17.7024C32.1479 16.5619 32.4124 15.3813 32.5443 14.1824C32.6017 13.3303 32.6087 12.4754 32.5651 11.6224" fill="#1F1F1F"></path>
    <path d="M31.04 13.4147C31.0497 13.6873 31.0057 13.9591 30.9104 14.2147C30.6928 14.7891 30.4224 15.3475 30.184 15.9155C29.992 16.3667 29.7952 16.8163 29.632 17.2787C29.4155 17.8513 29.1285 18.3946 28.7776 18.8963C28.2836 19.6681 27.7367 20.4048 27.1408 21.1011C26.8141 21.5013 26.5233 21.9296 26.272 22.3811C25.6016 23.4899 25.1104 24.6867 24.5616 25.8547C24.3782 26.2396 24.1516 26.6024 23.8864 26.9363C23.1968 27.8195 22.5024 28.6963 21.7664 29.5427C21.3434 29.9934 20.8895 30.4141 20.408 30.8019C20.207 30.9493 19.9958 31.0825 19.776 31.2003C19.6896 31.2547 19.6336 31.2307 19.5664 31.1539C18.7584 30.2403 17.9424 29.3299 17.1344 28.4147C17.0139 28.2753 16.9017 28.1289 16.7984 27.9763C16.3184 27.2851 15.8384 26.6019 15.368 25.8963C15.0848 25.4675 14.84 25.0131 14.5776 24.5699C14.4896 24.4243 14.4032 24.2755 14.3088 24.1315C13.9888 23.6419 13.6608 23.1571 13.3488 22.6659C12.8 21.8179 12.2656 20.9603 11.7184 20.1219C11.2927 19.4651 10.9493 18.7585 10.696 18.0179C10.4368 17.2611 10.168 16.5027 9.85444 15.7651C9.58831 15.1379 9.42618 14.4716 9.37444 13.7923C9.32804 13.2211 9.28164 12.6483 9.28324 12.0755C9.29305 11.7143 9.34569 11.3555 9.44004 11.0067C9.66156 10.1267 10.0655 9.30302 10.6256 8.58908C10.8787 8.24866 11.1085 7.89158 11.3136 7.52028C11.6618 6.90669 12.1566 6.38887 12.7536 6.01308C13.2352 5.7278 13.7994 5.61494 14.3536 5.69308C14.4697 5.72386 14.5715 5.79399 14.6416 5.89148C15.194 6.52332 15.6087 7.26331 15.8592 8.06428C16.3094 9.51353 16.9485 10.8972 17.76 12.1795C17.8496 12.3251 17.9712 12.4515 18.08 12.5875C18.1522 12.6677 18.2111 12.759 18.2544 12.8579C18.2709 12.9163 18.3 12.9703 18.3398 13.0162C18.3795 13.062 18.4289 13.0984 18.4845 13.1229C18.54 13.1474 18.6002 13.1592 18.6609 13.1577C18.7215 13.1561 18.7811 13.1412 18.8352 13.1139L18.7824 13.1891C18.8784 13.2483 18.984 13.3667 19.0688 13.3491C19.1536 13.3315 19.264 13.2131 19.3088 13.1139C19.6624 12.3299 19.9936 11.5395 20.344 10.7539C20.472 10.4723 20.6256 10.2003 20.776 9.92988C20.8784 9.74588 21.0032 9.57628 21.096 9.39228C21.3909 8.81838 21.8121 8.3189 22.328 7.93148C22.6916 7.65332 23.0238 7.33623 23.3184 6.98588C23.517 6.74111 23.7667 6.54269 24.05 6.4045C24.3332 6.26631 24.6433 6.1917 24.9584 6.18588C25.5664 6.17628 26.1824 6.07708 26.7808 6.25788C27.1019 6.3358 27.4117 6.45464 27.7024 6.61148C28.3296 7.00028 28.9408 7.41148 29.5264 7.86268C29.936 8.18268 30.1264 8.66268 30.3024 9.14268C30.6416 10.0499 30.7328 11.0131 30.8752 11.9619C30.9547 12.4451 31.0081 12.9322 31.0352 13.4211" fill="white"></path>
</svg>