<svg id="Ebene_1" data-name="Ebene 1" xmlns="http://www.w3.org/2000/svg" viewBox="0 0 250 250"><defs><style>.cls-1{fill:#1d1d1b;}</style></defs><path class="cls-1" d="M157.14,95h21.53a42.48,42.48,0,0,1-4.36-11.39c-.4-1.58-1-3.1-1.58-4.72-5.1,2.06-10.28,1.83-15.59,1.81Zm.46-21.68c2.53,0,4.79.1,7,0a17.71,17.71,0,0,0,8.06-2A11.68,11.68,0,0,1,178.57,70c.8,0,1.29.32,1.25,1.12-.06,1.4.93,2.72.27,4.16-.06.13.09.36.14.54.58,2,1.21,4,1.72,6,1,3.71,2.46,7.14,5.86,9.15a66.89,66.89,0,0,0,7.93,3.62,6.66,6.66,0,0,0,2.45.54c2.8.08,5.6.08,8.41,0a1.81,1.81,0,0,0,1.29-.53,56.36,56.36,0,0,0,3.77-5.46c2-3.4,2.05-7.24,2.32-11a13.29,13.29,0,0,0,.28-2.77,24,24,0,0,0-3.58-9.62,54.76,54.76,0,0,0-10.15-11.08,15.53,15.53,0,0,0-8.34-3.83c-2.65-.36-5.34-.47-8-.69-4.34-.37-8.7-.69-13-1.12-2.22-.22-5.3,1-6.26,2.9-2.27,4.55-4.87,9-5.87,14.06-.49,2.5-1,5-1.41,7.41m.28-24.64c-1.35-.09-2.57-.22-3.79-.23-6.56-.1-13.13-.13-19.69-.25-2.34,0-4.67-.32-7-.41-2.87-.11-5.75-.3-8.62-.16-5.09.24-10.18.82-15.27,1-4.68.18-9.37,0-14,0a12.3,12.3,0,0,1-2.18-.15,77.2,77.2,0,0,0-18-1.46c-.38,0-.77,0-1.15,0-4.66.31-9.06,1.2-12.18,5.15-.07.09-.16.16-.24.25-4,4.17-8,8.3-11.89,12.53a15.8,15.8,0,0,0-4.07,8.1c-.85,4.72-1.82,9.41-2.85,14.09a59,59,0,0,0-.87,21.06,143,143,0,0,1,1.8,22.35c-.14,8.91-.09,17.82-.14,26.73a37,37,0,0,1-.24,4.94,152,152,0,0,0-1,19.43c-.06,4.45-.14,8.9-.27,13.35,0,1.64-.25,3.27-.37,4.68,2.34.28,4.5.45,6.63.8,2.69.44,5.34,1.07,8,1.53a78.4,78.4,0,0,0,18,.71c5.65-.35,11.24-1.41,16.94-1.35,4.45,0,8.91-.26,13.36-.27,8.29,0,16.55-.16,24.83-.94,7-.67,14.18-.43,21.28-.59h1.47c.06-.63.08-1.13.16-1.62a178.83,178.83,0,0,0,1.72-28.23c0-3.76,0-7.52,0-11.29a19.77,19.77,0,0,1,.11-2.18c.48-4.34,1.07-8.68,1.45-13,.65-7.4.13-14.8-.25-22.2-.26-5.17-.74-10.34-.8-15.51-.13-11.55-.3-23.12,1.12-34.62a43.24,43.24,0,0,1,4-14.45c1.3-2.56,2.56-5.13,3.9-7.82m64.62,35-.27.72-1-.67a6.1,6.1,0,0,0-.28.86c-1,6.29-4.3,11.34-8.54,15.86a9.1,9.1,0,0,1-6.12,2.58c-1.72.15-3.44.19-5.22.28v1a1.32,1.32,0,0,1-.36.1c-2.53-.32-5.07-.67-7.61-1a35.65,35.65,0,0,0-4.11-.37c-7.22,0-14.44,0-21.66,0H157.1c0,2.49-.06,4.63,0,6.76.31,9.09.81,18.18.92,27.28a93.55,93.55,0,0,1-1,12.25,112.9,112.9,0,0,0-.94,15,232.33,232.33,0,0,1-.86,25.31c-.47,4.81-1,9.62-1.68,14.4a7.05,7.05,0,0,1-1.53,3.23c-1,1.28-3.52,1.1-4.66-.08a1.53,1.53,0,0,0-1.06-.43c-7.28.27-14.57.5-21.85.91-3.82.21-7.62.86-11.44,1.1-3.56.23-7.14.18-10.71.23-7.64.09-15.28,0-22.91.28-4.06.14-8.09.82-12.13,1.23-1.48.15-3,.23-4.46.34h-7.6a7.13,7.13,0,0,0-.88-.23c-4.25-.54-8.51-1-12.76-1.62-2.26-.31-4.5-.9-6.77-1.13A3.2,3.2,0,0,1,32,206.51c-.14-.23-.43-.57-.62-.55-1,.09-1.43-.66-1.68-1.32a10.88,10.88,0,0,1-.74-3.31c-.07-1.76.13-3.52.18-5.29s.14-3.75.11-5.62c-.1-6.83-.33-13.66-.33-20.49,0-3.14.62-6.27.66-9.4.13-9.64.09-19.28.15-28.91,0-5.8.13-11.63-.91-17.34a80.93,80.93,0,0,1-1.29-16.36,59.2,59.2,0,0,1,1.68-13,85.94,85.94,0,0,0,2-9.32,26.6,26.6,0,0,1,5.62-14C39,59,41.32,56.48,43.68,54s4.9-4.67,7.2-7.14C55.33,42.13,61,40,67.23,39.34a132,132,0,0,1,13.35-.24,23.15,23.15,0,0,1,3.43.32,71.64,71.64,0,0,0,14.54,1.3c6-.28,12-.48,18.06-.72,3.37-.14,6.74-.47,10.11-.42,8.33.15,16.65.45,25,.72,3.45.11,6.9.27,10.35.43,8,.38,16,.09,23.88,1.32,3.1.48,6.28.37,9.4.78a18.81,18.81,0,0,1,9.49,3.82,67.91,67.91,0,0,1,9.62,9.71c3.75,4.49,5.75,9.86,6.88,15.52.58,2.85.81,5.76,1.19,8.64Z"/><path class="cls-1" d="M126.89,100.83c-.52-.14-.93-.22-1.32-.35-7-2.36-14.17-2.22-21.36-1.26a54,54,0,0,0-7.15,1.65c-4.13,1.14-8.34,1.12-12.57,1-2.87-.07-5.75-.08-8.62-.19-7.47-.29-14.94-.57-22.4-1-1.46-.08-3.19,0-4.17-1.48a7.34,7.34,0,0,1-1-2.63,1.59,1.59,0,0,1,1.26-1.9c.21-.07.49-.1.63-.25,1.3-1.49,2.79-1.4,4.57-.93a21.88,21.88,0,0,0,5.25.55c9,.2,18,.28,27.05.51A42.86,42.86,0,0,0,99,93.34c2.08-.54,4.14-1.16,6.24-1.52a60.79,60.79,0,0,1,6.74-.67c2.06-.11,4.15.08,6.21-.05,3.29-.22,6.4.65,9.54,1.33,1.51.33,1.82.82,2,2.41a5.8,5.8,0,0,0,.19,1,4.41,4.41,0,0,1-1.54,4.46,5.34,5.34,0,0,1-1.41.52"/><path class="cls-1" d="M121.19,142.51c-8.64,0-17.27,0-25.9,0-7.18.06-14.35.36-21.52.4-4.18,0-8.36-.41-12.53-.38-3.56,0-7.11.41-10.67.63h-.23c-3.09.16-3.08-.26-4.11-3.17a2,2,0,0,1,1-2.34,13.26,13.26,0,0,1,1.72-1,13.49,13.49,0,0,1,3.5-1c4.52-.33,9-.7,13.56-.7,5.52,0,11,.43,16.56.5,10.25.14,20.5.19,30.74.22,4.53,0,9.06-.15,13.58-.2,1.79,0,1.78,0,2,1.84a7.12,7.12,0,0,1,.32,1.76c-.24,1.48-1.35,3.17-3.19,3.19h-4.83v.24"/><path class="cls-1" d="M130.09,123.22c-2.21-.27-4.71-.58-7.22-.87A39,39,0,0,0,119,122c-8.67,0-17.35.09-26-.08-5.51-.1-11-.68-16.52-.92-3.49-.16-7-.13-10.47-.12-2.38,0-4.76,0-7.13.19-1.78.13-3.53.57-5.31.72a1.87,1.87,0,0,1-1.51-.67c-1.15-1.89-1.51-3.07.82-4.52a14.49,14.49,0,0,1,7.53-2.07c3.88-.12,7.75-.41,11.63-.35,5.78.08,11.57.41,17.36.59,2.64.08,5.29.09,7.94.07,7.83,0,15.66-.21,23.49-.16,3.17,0,6.34.49,9.51.75,1.18.1,2.37.25,3.55.31a1.21,1.21,0,0,1,1.31,1.27,15.5,15.5,0,0,0,.39,2c.36,1.42-1.11,3.61-2.73,3.93a26.82,26.82,0,0,1-2.72.26"/></svg>