<svg width="24" height="24" viewBox="0 0 24 24" fill="none" xmlns="http://www.w3.org/2000/svg">
<g clip-path="url(#clip0_4471_16029)">
<path d="M10.8121 14.2406C11.0617 14.2406 11.3123 14.2338 11.5628 14.2406C12.1465 14.2588 12.6054 13.9785 12.9846 13.5849C13.2445 13.3027 13.47 12.9908 13.6566 12.6556C13.862 12.3033 14.0137 11.9202 14.1932 11.5526C14.3012 11.3212 14.3563 11.0687 14.3545 10.8134C14.3596 10.3967 14.3542 9.98072 14.3382 9.56536C14.3151 8.99896 14.2345 8.44216 13.9849 7.92088C13.9118 7.76669 13.8533 7.60599 13.8102 7.44088C13.6764 7.0004 13.4586 6.58997 13.1689 6.23224C12.7561 5.68092 12.2395 5.21557 11.6483 4.86232C11.1606 4.57432 10.6566 4.30744 10.1555 4.04152C10.0422 3.977 9.91513 3.94077 9.78491 3.93592C9.28187 3.93592 8.77595 3.93592 8.27578 3.99256C7.6426 4.05829 7.04221 4.30679 6.54779 4.70776C6.11387 5.05624 5.71931 5.45176 5.29979 5.81176C4.93732 6.12171 4.67088 6.5287 4.53179 6.98488C4.40699 7.36888 4.30523 7.77112 4.21499 8.17048C4.18534 8.33074 4.18112 8.49467 4.20251 8.65624C4.25531 9.19864 4.31867 9.74104 4.38011 10.2882C4.38909 10.4618 4.41286 10.6343 4.45115 10.8038C4.51834 11.0369 4.60273 11.2647 4.70363 11.4854C4.80467 11.7346 4.93348 11.9716 5.08763 12.1919C5.30726 12.4676 5.55146 12.7227 5.81722 12.9542C6.42394 13.4879 7.13723 13.8671 7.82171 14.2886C7.97822 14.3816 8.16154 14.4191 8.34203 14.3951C9.16475 14.326 9.98363 14.1974 10.814 14.2415M14.2278 13.7721C14.3065 13.825 14.3821 13.8824 14.4543 13.9439C14.8729 14.3394 15.2886 14.7388 15.7023 15.1353C15.7542 15.1842 15.8137 15.2255 15.8684 15.2735C16.1209 15.4962 16.3734 15.718 16.6249 15.9455C16.9868 16.2681 17.3468 16.5926 17.7087 16.9151C18.0927 17.2569 18.4835 17.5948 18.8684 17.9366C19.0182 18.07 19.1679 18.2054 19.3062 18.3503C19.5206 18.5585 19.7204 18.7811 19.9043 19.0166C20.2682 19.5112 20.6582 19.9861 21.0726 20.4393C21.183 20.5622 21.3174 20.6745 21.2991 20.8646C21.2912 20.9006 21.2772 20.935 21.2579 20.9663C21.2425 20.9961 21.2108 21.023 21.207 21.0527C21.1926 21.1833 21.0735 21.2447 21.0227 21.3551C21.0227 21.3657 20.9679 21.3666 20.9468 21.3551C20.906 21.3308 20.8674 21.3029 20.8316 21.2716C20.7923 21.3676 20.75 21.3609 20.6675 21.3206C20.5712 21.2793 20.4668 21.2603 20.3622 21.2649C20.2961 21.2667 20.2304 21.255 20.169 21.2306C20.1076 21.2062 20.0518 21.1695 20.0051 21.1228C19.4953 20.6428 18.9769 20.1705 18.4748 19.6828C18.1302 19.3468 17.7932 19.0012 17.4783 18.6383C17.1635 18.2754 16.7823 18.0076 16.4223 17.7052C15.7244 17.1148 14.9977 16.5532 14.3756 15.8812C14.0444 15.5231 13.743 15.1372 13.4281 14.7628L13.4051 14.7369C12.8818 14.9216 12.3421 15.056 11.7932 15.1382C11.3599 15.1855 10.9245 15.2101 10.4886 15.2121C10.0086 15.2332 9.53435 15.2476 9.05627 15.2649C8.57819 15.2822 8.09626 15.1689 7.61626 15.0806C6.74266 14.9212 5.97755 14.5132 5.26715 14.0073C4.43099 13.4121 3.79355 12.6489 3.45371 11.661C3.29723 11.206 3.11195 10.7596 2.97371 10.2978C2.83547 9.83608 2.70971 9.39832 2.68571 8.92024C2.6821 8.60671 2.74016 8.29553 2.85659 8.0044C2.91995 7.8268 2.97371 7.6444 3.04859 7.47064C3.14459 7.24024 3.25691 7.01656 3.36539 6.79096C3.43931 6.63736 3.51323 6.48376 3.59771 6.33592C4.25667 5.17235 5.20848 4.20134 6.35866 3.51928C6.75515 3.2812 7.14587 3.03352 7.58459 2.87416C8.20989 2.65735 8.87678 2.5877 9.53339 2.67064C9.95125 2.71335 10.3659 2.78326 10.7747 2.87992C11.4593 3.03339 12.0914 3.3645 12.6073 3.83992C13.1171 4.31512 13.6412 4.77784 14.0473 5.35C14.3156 5.7028 14.5349 6.09032 14.6991 6.502C14.7739 6.68425 14.8595 6.86185 14.9555 7.03384C15.1907 7.48696 15.2905 7.98136 15.4143 8.47384C15.5996 9.20152 15.6236 9.94264 15.6188 10.6866C15.6175 10.7517 15.6071 10.8164 15.5881 10.8786C15.3961 11.519 15.2147 12.1612 14.8652 12.7391C14.6838 13.0377 14.5004 13.3334 14.318 13.631L14.2566 13.727L14.222 13.7702" fill="#878787"/>
<path d="M7.45602 6.72014C7.40418 6.62414 7.3533 6.66734 7.30818 6.72014C7.25251 6.78242 7.2021 6.84921 7.15746 6.91982C7.02309 7.12762 6.83679 7.29672 6.61698 7.41038C6.58242 7.43054 6.53826 7.47854 6.51138 7.39886C6.51138 7.3931 6.4989 7.38542 6.49506 7.38734C6.33474 7.43342 6.18594 7.34414 6.0285 7.34798C5.95457 7.34007 5.88197 7.32264 5.8125 7.29614C5.88219 6.94843 6.04512 6.62621 6.28386 6.36398C6.71304 5.8629 7.27668 5.49514 7.90818 5.30414C8.08561 5.24951 8.26977 5.21979 8.45538 5.21582C8.78754 5.21582 9.1197 5.26286 9.45186 5.25998C9.76672 5.26627 10.0774 5.33343 10.3667 5.45774C10.5662 5.53796 10.7589 5.63428 10.9427 5.74574C11.3815 6.00974 11.8067 6.28814 12.1571 6.67502C12.2858 6.81806 12.2877 6.93326 12.1715 7.08014C12.1413 7.12661 12.1214 7.17897 12.113 7.23374C12.0976 7.29902 12.0775 7.3163 12.017 7.27886C11.9843 7.25966 11.9344 7.2731 11.8931 7.26638C11.8519 7.25966 11.7914 7.24046 11.7405 7.23374C11.6339 7.2302 11.5277 7.21897 11.4227 7.20014C11.3307 7.17154 11.244 7.12774 11.1664 7.07054C11.0551 6.99374 10.9648 6.8843 10.8477 6.81998C10.4695 6.61166 10.0797 6.4235 9.70146 6.21614C9.42292 6.05567 9.09362 6.0076 8.78082 6.08174C8.63682 6.11438 8.49282 6.1451 8.34786 6.17774C8.02652 6.24324 7.73532 6.41176 7.51842 6.65774C7.49785 6.67855 7.47605 6.6981 7.45314 6.7163" fill="#878787"/>
</g>
<defs>
<clipPath id="clip0_4471_16029">
<rect width="24" height="24" fill="white"/>
</clipPath>
</defs>
</svg>
