<svg class="w-5 h-5" width="20" height="20" viewBox="0 0 20 20" fill="none" xmlns="http://www.w3.org/2000/svg">
    <path d="M15.4511 7.10802C15.3423 7.39521 15.2071 7.67442 15.0879 7.95842C14.9919 8.18402 14.8935 8.40882 14.8119 8.64002C14.7038 8.92613 14.5603 9.19757 14.3847 9.44801C14.1379 9.83432 13.8645 10.203 13.5663 10.5512C13.403 10.7513 13.2576 10.9655 13.1319 11.1912C12.7967 11.7448 12.5511 12.344 12.2767 12.928C12.1848 13.1204 12.0716 13.3018 11.9391 13.4688C11.5943 13.9104 11.2471 14.3488 10.8791 14.772C10.6674 14.9972 10.4405 15.2075 10.1999 15.4016C10.1004 15.4749 9.9959 15.5412 9.88715 15.6C9.84395 15.6272 9.81595 15.6152 9.78235 15.5768C9.37835 15.12 8.97035 14.6648 8.56635 14.2072C8.50608 14.1375 8.44998 14.0643 8.39835 13.988C8.15835 13.6424 7.91835 13.3008 7.68315 12.948C7.54155 12.7336 7.41915 12.5064 7.28795 12.2848C7.24395 12.2112 7.20075 12.1376 7.15355 12.0656C6.99355 11.8208 6.82955 11.5784 6.67355 11.3328C6.40155 10.9104 6.13435 10.4848 5.86075 10.0624C5.64788 9.73402 5.47619 9.38071 5.34955 9.01041C5.21995 8.63201 5.08555 8.25282 4.92875 7.88402C4.79606 7.57032 4.71501 7.23721 4.68875 6.89762C4.66555 6.61202 4.64235 6.32561 4.64315 6.03921C4.64714 5.85817 4.67266 5.67824 4.71915 5.50321C4.82991 5.06321 5.03187 4.65138 5.31195 4.29441C5.43848 4.1242 5.5534 3.94566 5.65595 3.76002C5.83026 3.45316 6.07756 3.19404 6.37595 3.00562C6.61684 2.86333 6.89886 2.80693 7.17595 2.84562C7.23399 2.861 7.28489 2.89607 7.31995 2.94482C7.59623 3.26097 7.80358 3.63124 7.92875 4.03202C8.15382 4.75664 8.47337 5.44846 8.87915 6.08962C8.92395 6.16242 8.98475 6.22481 9.03915 6.29361C9.07525 6.33374 9.10468 6.37938 9.12635 6.42881C9.13456 6.45802 9.14912 6.48504 9.16901 6.50795C9.18889 6.53086 9.2136 6.54908 9.24135 6.56132C9.26911 6.57355 9.29923 6.57949 9.32956 6.57871C9.35988 6.57794 9.38966 6.57046 9.41675 6.55681C9.40795 6.56961 9.39915 6.58161 9.39115 6.59441C9.43835 6.62401 9.49115 6.68242 9.53355 6.67442C9.57595 6.66642 9.63115 6.60641 9.65355 6.55681C9.83035 6.16481 9.99595 5.76881 10.1711 5.37681C10.2351 5.23601 10.3127 5.10001 10.3871 4.96481C10.4383 4.87281 10.5007 4.78801 10.5471 4.69601C10.6943 4.40892 10.905 4.15914 11.1631 3.96562C11.345 3.82653 11.511 3.66799 11.6583 3.49282C11.7575 3.3703 11.8823 3.27101 12.024 3.2019C12.1657 3.1328 12.3208 3.09556 12.4783 3.09282C12.7823 3.08802 13.0903 3.03842 13.3895 3.12882C13.5501 3.16777 13.705 3.22719 13.8503 3.30562C14.1639 3.50002 14.4695 3.70562 14.7623 3.93042C14.9671 4.09042 15.0623 4.33041 15.1503 4.57041C15.3199 5.02401 15.3655 5.50561 15.4367 5.98001C15.4766 6.22159 15.5033 6.46515 15.5167 6.70962C15.5216 6.84591 15.4996 6.98182 15.4519 7.10962M16.2791 5.81441C16.2579 5.34257 16.1494 4.87874 15.9591 4.44642C15.8199 4.10882 15.6823 3.76961 15.5519 3.42801C15.5046 3.26724 15.4094 3.12466 15.2791 3.01922C14.8791 2.73842 14.4647 2.46482 14.0551 2.19202C13.8806 2.08448 13.6822 2.02157 13.4775 2.00882C13.2403 1.98311 13.0016 1.97455 12.7631 1.98322C12.4551 1.99762 12.1479 2.03522 11.8431 2.07442C11.7356 2.08641 11.6312 2.11814 11.5351 2.16802C11.2596 2.30946 11.0131 2.50162 10.8087 2.73442C10.7287 2.82882 10.6487 2.92242 10.5687 3.01842C10.3583 3.27842 10.1423 3.53522 10.0039 3.84401C9.92395 4.02641 9.85915 4.21921 9.76955 4.39681C9.67995 4.57441 9.55915 4.75601 9.44955 4.93361L9.42155 4.92321C9.38315 4.83041 9.34155 4.73601 9.30395 4.64241C9.14395 4.27121 8.98395 3.90161 8.82955 3.52801C8.74782 3.31699 8.63861 3.11768 8.50475 2.93521C8.32395 2.69521 8.14555 2.45522 7.96235 2.22082C7.9158 2.15583 7.85875 2.09906 7.79355 2.05282C7.55355 1.89842 7.31355 1.74001 7.05915 1.61041C6.91776 1.54649 6.76655 1.50699 6.61195 1.49362C6.35342 1.47062 6.09318 1.5107 5.85355 1.61041C5.61647 1.68311 5.41613 1.84366 5.29355 2.05922C5.2368 2.16581 5.17208 2.26796 5.09995 2.36482C4.92235 2.61282 4.72795 2.85042 4.56395 3.10722C4.41274 3.33834 4.28465 3.58379 4.18155 3.84002C4.1044 4.07612 4.04871 4.3187 4.01515 4.56481C3.97835 4.76081 3.95675 4.96481 3.93515 5.15921C3.90075 5.44961 3.83515 5.74162 3.84715 6.02962C3.87195 6.62082 3.92715 7.21042 3.99515 7.79842C4.0397 8.06826 4.09953 8.33535 4.17435 8.59842C4.25032 8.92769 4.37034 9.24521 4.53115 9.54241C4.70235 9.86241 4.86315 10.1944 5.03755 10.5152C5.14444 10.7323 5.27196 10.9386 5.41835 11.1312C5.63811 11.4042 5.83504 11.6948 6.00715 12C6.10795 12.1704 6.18795 12.352 6.29675 12.516C6.53675 12.8768 6.78315 13.2312 7.03275 13.584C7.24715 13.8888 7.47435 14.184 7.68795 14.4896C7.96238 14.9034 8.27842 15.2881 8.63115 15.6376C8.74892 15.7446 8.85486 15.864 8.94715 15.9936C9.06955 16.1744 9.16955 16.3712 9.27435 16.564C9.30701 16.6177 9.3252 16.6788 9.32715 16.7416C9.32251 16.7905 9.33518 16.8395 9.36297 16.88C9.39075 16.9205 9.43187 16.9499 9.47915 16.9632C9.57275 16.9808 9.67355 16.9776 9.74075 17.0664C9.74924 17.0748 9.75967 17.0809 9.77113 17.0843C9.78258 17.0876 9.79468 17.0881 9.80635 17.0856C9.90155 17.028 9.99675 16.9672 10.0855 16.9008C10.1797 16.8171 10.2794 16.7399 10.3839 16.6696C10.5307 16.5938 10.6839 16.5309 10.8415 16.4816C11.0938 16.3933 11.3049 16.2157 11.4351 15.9824C11.4663 15.9312 11.4991 15.8808 11.5351 15.832C11.7367 15.5377 11.966 15.2634 12.2199 15.0128C12.3428 14.8962 12.4503 14.7645 12.5399 14.6208C12.7013 14.3703 12.8162 14.0928 12.8791 13.8016C12.8925 13.7488 12.9127 13.698 12.9391 13.6504C13.0607 13.42 13.1743 13.184 13.3095 12.9616C13.5119 12.6296 13.7223 12.304 13.8607 11.9376C13.9135 11.8152 13.9815 11.6998 14.0631 11.5944C14.1871 11.4248 14.3263 11.2672 14.4503 11.0968C14.6316 10.868 14.7976 10.6275 14.9471 10.3768C15.0566 10.1654 15.1857 9.96478 15.3327 9.77762C15.5701 9.50535 15.7546 9.19117 15.8767 8.85122C16.073 8.28096 16.2052 7.69067 16.2711 7.09122C16.2999 6.66513 16.3034 6.23771 16.2815 5.81121" fill="#E4E4E4"></path>
    <path d="M15.519 6.7071C15.5239 6.84339 15.5019 6.9793 15.4542 7.1071C15.3454 7.3943 15.2102 7.6735 15.091 7.9575C14.995 8.1831 14.8966 8.4079 14.815 8.6391C14.7068 8.92539 14.5633 9.19708 14.3878 9.4479C14.1408 9.83381 13.8674 10.2022 13.5694 10.5503C13.4061 10.7504 13.2607 10.9646 13.135 11.1903C12.7998 11.7447 12.5542 12.3431 12.2798 12.9271C12.1881 13.1195 12.0748 13.301 11.9422 13.4679C11.5974 13.9095 11.2502 14.3479 10.8822 14.7711C10.6707 14.9964 10.4438 15.2068 10.203 15.4007C10.1025 15.4744 9.99692 15.541 9.88704 15.5999C9.84384 15.6271 9.81584 15.6151 9.78224 15.5767C9.37824 15.1199 8.97024 14.6647 8.56624 14.2071C8.50598 14.1374 8.44988 14.0642 8.39824 13.9879C8.15824 13.6423 7.91825 13.3007 7.68305 12.9479C7.54145 12.7335 7.41904 12.5063 7.28784 12.2847C7.24384 12.2119 7.20064 12.1375 7.15344 12.0655C6.99344 11.8207 6.82944 11.5783 6.67344 11.3327C6.39904 10.9087 6.13184 10.4799 5.85824 10.0607C5.64537 9.73231 5.47369 9.37899 5.34704 9.0087C5.21744 8.6303 5.08305 8.2511 4.92625 7.8823C4.79318 7.56872 4.71211 7.23556 4.68625 6.8959C4.66305 6.6103 4.63985 6.3239 4.64065 6.0375C4.64555 5.85689 4.67187 5.6775 4.71905 5.5031C4.8298 5.06309 5.03177 4.65127 5.31185 4.2943C5.43837 4.12408 5.5533 3.94555 5.65584 3.7599C5.82994 3.4531 6.0773 3.19419 6.37584 3.0063C6.6166 2.86366 6.89875 2.80723 7.17584 2.8463C7.23389 2.86169 7.28478 2.89675 7.31985 2.9455C7.59603 3.26142 7.80337 3.63141 7.92864 4.0319C8.15372 4.75652 8.47327 5.44834 8.87904 6.0895C8.92384 6.1623 8.98464 6.2255 9.03904 6.2935C9.07514 6.33362 9.10458 6.37927 9.12624 6.4287C9.13445 6.4579 9.14902 6.48493 9.1689 6.50783C9.18879 6.53074 9.21349 6.54897 9.24125 6.5612C9.26901 6.57344 9.29913 6.57938 9.32945 6.5786C9.35978 6.57782 9.38955 6.57034 9.41664 6.5567L9.39024 6.5943C9.43824 6.6239 9.49104 6.6831 9.53344 6.6743C9.57584 6.6655 9.63104 6.6063 9.65344 6.5567C9.83024 6.1647 9.99584 5.7695 10.171 5.3767C10.235 5.2359 10.3118 5.0999 10.387 4.9647C10.4382 4.8727 10.5006 4.7879 10.547 4.6959C10.6945 4.40895 10.9051 4.15921 11.163 3.9655C11.3448 3.82641 11.5109 3.66787 11.6582 3.4927C11.7575 3.37031 11.8824 3.2711 12.024 3.20201C12.1656 3.13291 12.3207 3.09561 12.4782 3.0927C12.7822 3.0879 13.0902 3.0383 13.3894 3.1287C13.55 3.16766 13.7048 3.22707 13.8502 3.3055C14.1638 3.4999 14.4694 3.7055 14.7622 3.9311C14.967 4.0911 15.0622 4.3311 15.1502 4.5711C15.3198 5.0247 15.3654 5.5063 15.4366 5.9807C15.4764 6.22229 15.5031 6.46584 15.5166 6.7103" fill="#E4E4E4"></path>
</svg>